<?xml version="1.0" standalone="no"?>
<!DOCTYPE svg PUBLIC "-//W3C//DTD SVG 1.1//EN" "http://www.w3.org/Graphics/SVG/1.1/DTD/svg11.dtd" >
<svg xmlns="http://www.w3.org/2000/svg">
<metadata></metadata>
<defs>
<font id="reservation_wideregular" horiz-adv-x="1386" >
<font-face units-per-em="2048" ascent="1597" descent="-451" />
<missing-glyph horiz-adv-x="573" />
<glyph horiz-adv-x="2048" />
<glyph horiz-adv-x="2048" />
<glyph unicode="&#xd;" horiz-adv-x="2048" />
<glyph unicode=" "  horiz-adv-x="573" />
<glyph unicode="&#x09;" horiz-adv-x="573" />
<glyph unicode="&#xa0;" horiz-adv-x="573" />
<glyph unicode="!" horiz-adv-x="491" d="M123 102q0 51 36 87t87 36t87 -36t36 -87t-36 -86.5t-87 -35.5t-87 35.5t-36 86.5zM145 1495h201l-41 -1106h-119z" />
<glyph unicode="&#x22;" horiz-adv-x="808" d="M123 1495h211l-41 -446h-129zM477 1495h209l-41 -446h-127z" />
<glyph unicode="#" horiz-adv-x="1515" d="M143 557v143h281v316h-281v143h281v275h143v-275h379v275h144v-275h282v-143h-282v-316h282v-143h-282v-270h-144v270h-379v-270h-143v270h-281zM567 700h379v316h-379v-316z" />
<glyph unicode="$" horiz-adv-x="1640" d="M90 354l164 43q25 -76 72 -127t109.5 -81.5t137 -46t152.5 -19.5v555q-113 10 -219.5 27.5t-189.5 54.5t-133 100.5t-50 165.5q0 111 56.5 188.5t143.5 128t191.5 76t200.5 31.5v147h174v-145q96 -6 190.5 -25.5t175.5 -61.5t143 -108.5t97 -166.5l-155 -39 q-25 72 -72 120t-107.5 76.5t-131 43t-140.5 18.5v-496q121 -10 239.5 -28.5t212 -60.5t151 -116.5t57.5 -195.5q0 -133 -62.5 -216t-159 -129.5t-213 -64.5t-225.5 -20v-146h-174v146q-106 4 -208.5 23.5t-188.5 61.5t-148.5 111.5t-89.5 175.5zM307 1026q0 -55 33 -91 t90 -57.5t133 -32.5t162 -18v484q-68 -4 -141.5 -19.5t-135 -47.5t-101.5 -85t-40 -133zM899 123q74 2 159 15.5t155.5 45t117.5 86t47 142.5q0 72 -39 116.5t-104.5 72.5t-152.5 41t-183 22v-541z" />
<glyph unicode="%" horiz-adv-x="2080" d="M164 1090q0 92 31.5 160.5t87 113.5t131 67.5t166.5 22.5q88 0 164.5 -22.5t132 -67.5t87 -113.5t31.5 -160.5q0 -90 -32.5 -157t-89 -111t-132 -65.5t-161.5 -21.5t-162 21.5t-132.5 65.5t-89 110.5t-32.5 157.5zM334 1092q0 -111 67.5 -167.5t178.5 -56.5t179 56.5 t68 167.5q0 113 -67.5 171t-179.5 58q-113 0 -179.5 -58.5t-66.5 -170.5zM350 0l1180 1434h207l-1190 -1434h-197zM1085 334q0 92 32 160.5t87.5 113.5t131 67.5t165.5 22.5q88 0 165 -22.5t132 -67.5t87 -113.5t32 -160.5q0 -90 -33 -156.5t-89 -110.5t-132 -65.5 t-162 -21.5t-161.5 21.5t-132 65.5t-89.5 110.5t-33 156.5zM1253 336q0 -111 69 -167t179 -56q111 0 179.5 56t68.5 167q0 113 -67.5 171t-180.5 58t-180.5 -58t-67.5 -171z" />
<glyph unicode="&#x26;" horiz-adv-x="1755" d="M102 379q0 80 31 143.5t81 113.5t114.5 90t134.5 73q-70 61 -125 138t-55 169q0 80 31.5 144.5t84 109.5t122 69.5t145.5 24.5q80 0 150.5 -22.5t124.5 -66.5t86 -109.5t32 -149.5q0 -63 -25.5 -112.5t-68.5 -90.5t-99.5 -73.5t-117.5 -61.5l528 -430q119 129 182 334 l170 -41q-45 -123 -100 -220.5t-127 -172.5l293 -238h-246l-168 135q-111 -78 -250 -113.5t-315 -35.5q-98 0 -206 15t-199 58t-149.5 120t-58.5 200zM276 379q0 -84 45.5 -134t111 -76t142 -33t140.5 -7q268 0 440 109l-567 458q-61 -29 -117.5 -59.5t-99.5 -68.5t-69 -85 t-26 -104zM449 1106q0 -35 15 -67.5t39.5 -61.5t55.5 -55.5t62 -51.5q55 25 104 50.5t85 53t57.5 60.5t21.5 72q0 100 -63.5 152.5t-159.5 52.5q-94 0 -155.5 -53.5t-61.5 -151.5z" />
<glyph unicode="'" horiz-adv-x="497" d="M143 1495h211l-41 -446h-129z" />
<glyph unicode="(" horiz-adv-x="851" d="M164 694q0 266 92 489.5t254 415.5l137 -67q-74 -98 -131 -193.5t-97 -195t-60.5 -210t-20.5 -239.5t20.5 -239.5t60.5 -211t97 -194.5t131 -192l-137 -70q-162 193 -254 416t-92 491z" />
<glyph unicode=")" horiz-adv-x="851" d="M205 -143q74 98 131 192t97 194.5t60.5 211t20.5 239.5t-20.5 239.5t-60.5 210t-97 195t-131 193.5l137 67q162 -193 254 -416t92 -489q0 -268 -92 -491t-254 -416z" />
<glyph unicode="*" horiz-adv-x="1028" d="M102 1135l54 161l313 -145l-41 344h170l-41 -344l315 145l54 -161l-342 -68l237 -254l-137 -100l-170 303l-170 -303l-137 100l235 254z" />
<glyph unicode="+" horiz-adv-x="1187" d="M123 489v144h399v399h144v-399h399v-144h-399v-399h-144v399h-399z" />
<glyph unicode="," horiz-adv-x="505" d="M123 102q0 53 39 88t90 35q53 0 92 -33.5t39 -99.5q0 -111 -46 -185.5t-147 -131.5l-47 57q41 27 70 61.5t33 86.5q-51 4 -87 36.5t-36 85.5z" />
<glyph unicode="-" horiz-adv-x="1126" d="M143 489v144h840v-144h-840z" />
<glyph unicode="." horiz-adv-x="491" d="M123 102q0 51 36 87t87 36t87 -36t36 -87t-36 -86.5t-87 -35.5t-87 35.5t-36 86.5z" />
<glyph unicode="/" horiz-adv-x="1058" d="M82 -61l704 1556h191l-715 -1556h-180z" />
<glyph unicode="0" horiz-adv-x="1771" d="M92 719q0 184 58.5 322.5t163 229.5t250 137t321.5 46q174 0 320.5 -46t252 -137t163.5 -229.5t58 -322.5q0 -188 -56 -327.5t-160.5 -230.5t-251 -136t-326.5 -45t-326.5 45t-250 136t-160 230t-56.5 328zM266 719q0 -147 43 -259t123 -186.5t194.5 -112.5t258.5 -38 q143 0 257.5 38t195.5 112.5t124 186.5t43 259q0 150 -43 260.5t-124 184t-195.5 110.5t-257.5 37t-258 -37t-195 -110.5t-123 -184.5t-43 -260z" />
<glyph unicode="1" horiz-adv-x="1073" d="M102 1206l447 228h156v-1434h-175v1282l-372 -186z" />
<glyph unicode="2" horiz-adv-x="1638" d="M102 0q0 150 52.5 252t138.5 174t196.5 118t225 79.5t225.5 62.5t197 67t138 90t52 132q0 94 -49 158.5t-123 104.5t-162 56.5t-164 16.5q-78 0 -161.5 -13.5t-159.5 -47t-133.5 -89t-81.5 -141.5l-160 39q33 109 106.5 183.5t169 121.5t204 68.5t210.5 21.5 q111 0 231 -24.5t218 -81t162.5 -148.5t64.5 -225q0 -102 -48 -173t-127 -121t-181.5 -83t-211 -62.5t-216 -60.5t-195.5 -74t-148.5 -104t-78.5 -154h1243v-143h-1434z" />
<glyph unicode="3" horiz-adv-x="1628" d="M102 356l160 43q29 -84 87.5 -138t134 -85t159.5 -42t164 -11q72 0 166 11t178 45t142.5 93.5t58.5 155.5q0 61 -31 107.5t-78 75t-104.5 43t-110.5 14.5h-354v143h354q49 0 95 11.5t82 37t57.5 64.5t21.5 94q0 88 -49 145.5t-122 90t-157 45t-153 12.5q-72 0 -155 -12.5 t-157.5 -43t-132 -83t-77.5 -132.5l-160 41q31 106 103.5 178t167.5 115t201.5 61.5t203.5 18.5q104 0 220 -19.5t214 -69.5t161.5 -134t63.5 -213q0 -92 -49 -163t-133 -105q109 -35 180.5 -120t71.5 -202q0 -90 -33 -159.5t-89 -119t-129 -82t-153 -52t-160.5 -27.5 t-152.5 -8q-109 0 -218.5 15t-205.5 57t-170 115t-113 189z" />
<glyph unicode="4" horiz-adv-x="1708" d="M41 336v133l1067 965h233v-955h285v-143h-285v-336h-174v336h-1126zM268 479h899v811z" />
<glyph unicode="5" horiz-adv-x="1611" d="M102 358l158 39q31 -90 88.5 -144t131 -83t156.5 -38t167 -9q86 0 180 13.5t172 51t129 105t51 174.5q0 100 -51 165.5t-128 103.5t-168 53.5t-173 15.5q-131 0 -254 -32t-233 -103l-162 32l72 732h1136v-144h-985l-53 -465q104 61 230 91t249 30q115 0 238 -23.5 t224 -80t166.5 -149.5t65.5 -230q0 -143 -65.5 -236.5t-167.5 -148.5t-227 -76.5t-244 -21.5q-106 0 -217 15t-207 57t-170 116t-109 190z" />
<glyph unicode="6" horiz-adv-x="1710" d="M102 707q0 180 54.5 319t154 234.5t241.5 144.5t320 49q104 0 213 -16.5t204 -59.5t167 -116.5t107 -186.5l-170 -39q-23 84 -78 137.5t-128 84t-155 42t-158 11.5q-305 0 -451.5 -158t-146.5 -459q45 63 121 108.5t162 73t173 40t159 12.5t152.5 -8.5t159.5 -29t153 -54 t129 -84t89 -119t34 -158.5q0 -147 -71 -242.5t-179.5 -151.5t-237.5 -78.5t-248 -22.5q-178 0 -321 43t-242.5 132t-153 226t-53.5 326zM324 469q0 -98 56 -164.5t139 -106.5t179.5 -57.5t173.5 -17.5q78 0 175.5 17.5t182.5 58.5t142.5 108.5t57.5 165.5q0 66 -28 115 t-73 85t-103.5 58.5t-121 36.5t-122.5 19.5t-110 5.5q-74 0 -169 -14.5t-180 -51.5t-142 -99.5t-57 -158.5z" />
<glyph unicode="7" horiz-adv-x="1497" d="M41 1290v144h1415v-144l-868 -1290h-203l872 1290h-1216z" />
<glyph unicode="8" horiz-adv-x="1636" d="M102 408q0 61 25 115.5t65.5 98.5t94 75.5t108.5 47.5q-47 8 -92 34t-79 64t-54 85t-20 96q0 131 65.5 215t163.5 132t216 65.5t222 17.5t222 -17.5t216.5 -65.5t164 -132t65.5 -215q0 -51 -20.5 -97t-54.5 -83t-78 -62.5t-91 -36.5q55 -16 108.5 -47.5t94.5 -74.5 t65.5 -98.5t24.5 -116.5q0 -96 -33 -166t-87 -118t-127 -77t-152.5 -43t-161.5 -19t-156 -5t-155.5 5t-161.5 19t-152 43t-126 77t-87 116.5t-33 167.5zM276 406q0 -102 56.5 -160t139.5 -85.5t177 -32.5t168 -5t168 5t177 32.5t140.5 85.5t57.5 160q0 98 -58.5 152 t-143.5 82t-178 34t-163 6t-163 -7t-177 -35t-142.5 -83t-58.5 -149zM324 1028q0 -57 26.5 -95t69.5 -61.5t97 -36t110.5 -18.5t108.5 -6h91q57 0 140.5 2t159 22.5t130 64.5t54.5 128q0 96 -50.5 152.5t-125 85t-160.5 37t-158 8.5t-158 -8.5t-160.5 -37t-124.5 -85 t-50 -152.5z" />
<glyph unicode="9" horiz-adv-x="1705" d="M102 969q0 143 70 236t177.5 148.5t236.5 78t245 22.5q182 0 325.5 -42t243 -131t152 -226.5t52.5 -325.5q0 -186 -52.5 -326.5t-152 -234.5t-242.5 -141t-326 -47q-104 0 -213.5 16t-205 58t-170 115t-107.5 185l168 39q23 -84 79 -137t131 -83t158 -40t158 -10 q315 0 461 152.5t144 463.5q-47 -74 -121 -116.5t-160 -64t-176 -28t-170 -6.5q-106 0 -229 19.5t-228.5 70t-176.5 136.5t-71 219zM281 969q0 -96 56 -155.5t139 -93.5t175 -46t166 -12t173.5 10t187.5 43t149.5 93.5t61.5 160.5q0 98 -58.5 163.5t-143.5 105.5 t-182.5 56.5t-173.5 16.5q-78 0 -174 -16.5t-180 -55.5t-140 -105.5t-56 -164.5z" />
<glyph unicode=":" horiz-adv-x="491" d="M123 102q0 51 36 87t87 36t87 -36t36 -87t-36 -86.5t-87 -35.5t-87 35.5t-36 86.5zM123 791q0 51 36 86.5t87 35.5t87 -35.5t36 -86.5t-36 -87t-87 -36t-87 35.5t-36 87.5z" />
<glyph unicode=";" horiz-adv-x="505" d="M123 102q0 53 39 88t90 35q53 0 92 -33.5t39 -99.5q0 -111 -46 -185.5t-147 -131.5l-47 57q41 27 70 61.5t33 86.5q-51 4 -87 36.5t-36 85.5zM123 791q0 51 36 86.5t87 35.5t87 -35.5t36 -86.5t-36 -87t-87 -36t-87 35.5t-36 87.5z" />
<glyph unicode="&#x3c;" horiz-adv-x="1548" d="M123 631v172l1220 631v-168l-1073 -549l1073 -549v-168z" />
<glyph unicode="=" horiz-adv-x="1085" d="M123 295v143h840v-143h-840zM123 684v143h840v-143h-840z" />
<glyph unicode="&#x3e;" horiz-adv-x="1548" d="M205 0v168l1075 549l-1075 549v168l1220 -631v-172z" />
<glyph unicode="?" horiz-adv-x="1554" d="M82 1063q37 111 110.5 186.5t169 120.5t204 64.5t214.5 19.5q100 0 217 -20.5t218.5 -69.5t169 -132t67.5 -208q0 -117 -48 -178.5t-120 -94t-154.5 -50t-154.5 -49t-120 -91t-48 -172.5h-141q0 111 26.5 182.5t69.5 115.5t98 67.5t113.5 39t114 29t98.5 36t69.5 60 t26.5 105.5q0 92 -52 148.5t-129 87t-164 41t-157 10.5q-78 0 -163 -12.5t-160.5 -45t-134 -88t-82.5 -141.5zM616 102q0 51 36 87t87 36t87 -36t36 -87t-35.5 -86.5t-87.5 -35.5q-51 0 -87 35.5t-36 86.5z" />
<glyph unicode="@" horiz-adv-x="1951" d="M143 561q0 180 64.5 317.5t177.5 230.5t264.5 141t325.5 48q172 0 323.5 -47t265 -140t179 -231.5t65.5 -318.5t-64.5 -318.5t-177 -231.5t-265 -140t-326.5 -47q-178 0 -330.5 47t-263.5 140t-174.5 231.5t-63.5 318.5zM299 561q0 -152 51 -265.5t142.5 -188t214 -112.5 t268.5 -38q145 0 269 37t215 112.5t142.5 188t51.5 266.5q0 152 -52.5 265.5t-142.5 188.5t-215 112.5t-268 37.5q-147 0 -272 -35.5t-214.5 -110.5t-139.5 -188.5t-50 -269.5zM510 557q0 94 37 164t98.5 116t141 69.5t163.5 23.5q76 0 153 -19.5t138 -66.5v78h139v-717 h-139v69q-59 -47 -135 -66.5t-150 -19.5q-86 0 -166.5 21.5t-143 65.5t-99.5 114t-37 168zM653 555q0 -66 24.5 -113t66.5 -77.5t97.5 -45t114.5 -14.5q39 0 89.5 6t93.5 24.5t72.5 50.5t29.5 81v180q0 49 -30.5 81t-75.5 50.5t-95.5 26.5t-89.5 8q-59 0 -113.5 -16.5 t-95.5 -48t-64.5 -81t-23.5 -112.5z" />
<glyph unicode="A" horiz-adv-x="1685" d="M20 0l717 1434h211l717 -1434h-190l-209 430h-846l-209 -430h-191zM489 571h707l-352 734z" />
<glyph unicode="B" horiz-adv-x="1726" d="M164 0v1434h934q92 0 176 -21.5t149.5 -68t104.5 -119t39 -174.5q0 -94 -42 -175t-126 -124q117 -43 186.5 -125t69.5 -213q0 -111 -33 -190t-93.5 -129t-145.5 -72.5t-189 -22.5h-1030zM338 143h856q139 0 213 64t74 207q0 74 -27 123t-71 79.5t-103 43t-127 12.5h-815 v-529zM338 811h831q102 0 163 70t61 172q0 66 -23.5 111.5t-63.5 73.5t-93.5 40t-112.5 12h-762v-479z" />
<glyph unicode="C" horiz-adv-x="1699" d="M92 719q0 195 60.5 334t168 228t258 131t332.5 42q106 0 217 -18.5t206.5 -63.5t168 -120.5t107.5 -192.5l-170 -39q-23 84 -79 140.5t-131 90t-158 47t-159 13.5q-145 0 -265 -35t-205 -106.5t-131 -183.5t-46 -267q0 -152 47 -263.5t133 -185t205 -110.5t262 -37 q68 0 149 10t155.5 37t135 73t89.5 119l176 -28q-37 -109 -115 -177.5t-176 -107.5t-206.5 -54t-209.5 -15q-182 0 -332.5 43t-258 133t-168 229t-60.5 334z" />
<glyph unicode="D" horiz-adv-x="1716" d="M164 0v1434h620q180 0 336 -39t270.5 -124t179 -221t64.5 -331t-61.5 -332t-170 -223t-256 -125t-319.5 -39h-663zM334 143h473q145 0 265 32t205 100.5t132 178t47 265.5t-50 265.5t-139 177t-212 98t-271 30.5h-450v-1147z" />
<glyph unicode="E" horiz-adv-x="1581" d="M164 0v1434h1292v-144h-1118v-479h989v-143h-989v-525h1130v-143h-1304z" />
<glyph unicode="F" horiz-adv-x="1538" d="M164 0v1434h1292v-144h-1118v-479h989v-143h-989v-668h-174z" />
<glyph unicode="G" horiz-adv-x="1796" d="M92 719q0 193 60.5 331t169 228t259 133t330.5 43q106 0 216 -18.5t206.5 -63.5t170 -121.5t108.5 -191.5l-170 -39q-23 86 -80 142.5t-131 89t-158 46t-160 13.5q-145 0 -265 -35t-205 -106.5t-131 -184.5t-46 -266q0 -154 46 -265.5t131 -185t204 -109.5t264 -36 q162 0 295 39t262 143v363h-555v143h729v-811h-174v133q-55 -45 -123.5 -74.5t-141.5 -47t-147.5 -24.5t-144.5 -7q-180 0 -330.5 43t-259 134t-169 230t-60.5 332z" />
<glyph unicode="H" horiz-adv-x="1808" d="M164 0v1434h174v-623h1132v623h175v-1434h-175v668h-1132v-668h-174z" />
<glyph unicode="I" horiz-adv-x="542" d="M184 0v1434h174v-1434h-174z" />
<glyph unicode="J" horiz-adv-x="1392" d="M61 307l166 41q25 -70 70 -114t102.5 -68.5t123 -33.5t130.5 -9q117 0 196 26.5t127 80t68.5 136.5t20.5 193v875h174v-895q0 -150 -38 -255.5t-111.5 -173t-183 -99t-255.5 -31.5q-96 0 -188 12t-171 48t-139.5 100.5t-91.5 166.5z" />
<glyph unicode="K" horiz-adv-x="1640" d="M164 0v1434h174v-670l965 670h262l-903 -623l958 -811h-246l-852 715l-184 -129v-586h-174z" />
<glyph unicode="L" horiz-adv-x="1368" d="M164 0v1434h174v-1291h969v-143h-1143z" />
<glyph unicode="M" horiz-adv-x="2025" d="M164 0v1434h264l586 -1235l583 1235h265v-1434h-174v1264q-29 -66 -64 -140q-29 -63 -66.5 -145t-78.5 -168l-389 -811h-156l-387 811q-41 82 -78 162t-66 145q-35 76 -65 146v-1264h-174z" />
<glyph unicode="N" horiz-adv-x="1824" d="M164 0v1434h262l1061 -1291v1291h174v-1434h-264l-1059 1290v-1290h-174z" />
<glyph unicode="O" horiz-adv-x="1824" d="M92 719q0 195 62.5 334t173 228t260 131t323.5 42q176 0 327 -42t260.5 -131t172 -228t62.5 -334t-61.5 -334t-171 -229t-260 -133t-329.5 -43q-176 0 -326.5 43t-260 133t-171 229t-61.5 334zM266 719q0 -156 47 -268.5t132 -185t204 -107.5t262 -35t262 35t205 107.5 t133.5 185t47.5 268.5t-48.5 267.5t-134.5 184t-204.5 106.5t-260.5 34q-141 0 -260 -34t-204 -106.5t-133 -184.5t-48 -267z" />
<glyph unicode="P" horiz-adv-x="1650" d="M164 0v1434h958q92 0 177 -27t149.5 -79t102.5 -130t38 -178t-38 -178t-102.5 -130.5t-149.5 -79t-177 -26.5h-784v-606h-174zM338 750h778q129 0 214 70.5t85 199.5t-85 199.5t-214 70.5h-778v-540z" />
<glyph unicode="Q" horiz-adv-x="1816" d="M82 719q0 195 60.5 334t168 228t258 131t332.5 42q180 0 331.5 -42t260.5 -131t169 -228.5t60 -333.5q0 -172 -47 -299t-133 -217l193 -203h-205l-105 111q-209 -131 -524 -131q-182 0 -332.5 43t-258 133t-168 229t-60.5 334zM256 719q0 -156 46 -268.5t130 -185 t203 -107.5t266 -35q123 0 227.5 26.5t186.5 77.5l-240 256h205l147 -157q59 72 90 168t31 225q0 156 -46 267.5t-130 184t-203.5 106.5t-267.5 34q-147 0 -266 -34t-204 -106.5t-130 -184.5t-45 -267z" />
<glyph unicode="R" horiz-adv-x="1714" d="M164 0v1434h964q92 0 178.5 -27t152 -79t104.5 -130t39 -178q0 -90 -31 -161t-84 -122t-124 -82.5t-151 -42.5l420 -612h-196l-410 606h-688v-606h-174zM338 750h792q61 0 114.5 18t94.5 53t64.5 85.5t23.5 113.5t-23.5 113.5t-64.5 85t-94 53t-115 18.5h-792v-540z" />
<glyph unicode="S" horiz-adv-x="1632" d="M82 356l166 43q27 -88 84 -142t134 -84t166 -40t179 -10q72 0 168 7t182 37t146.5 87t60.5 158q0 84 -53 132t-140.5 73.5t-199 37t-228 20.5t-228 25.5t-199 53.5t-140.5 101.5t-53 170.5q0 125 69.5 207t172 131t221.5 69.5t217 20.5q106 0 213.5 -15.5t201 -56.5 t167 -111.5t110.5 -183.5l-158 -38q-27 84 -86 135t-133.5 79.5t-159.5 38t-161 9.5q-70 0 -157 -10.5t-162.5 -40t-127 -86t-51.5 -148.5q0 -72 53.5 -109.5t141.5 -58t199.5 -29t229 -18.5t229.5 -29.5t200 -62.5t141 -116.5t53 -190.5q0 -145 -73.5 -231.5t-185 -131.5 t-240.5 -57t-240 -12q-117 0 -234.5 14t-218 55t-174 115t-102.5 192z" />
<glyph unicode="T" horiz-adv-x="1607" d="M61 1290v144h1485v-144h-655v-1290h-174v1290h-656z" />
<glyph unicode="U" horiz-adv-x="1732" d="M143 657v777h174v-777q0 -147 32 -248.5t98.5 -165t170 -92t246.5 -28.5t246.5 28.5t171.5 92t100.5 166t32.5 247.5v777h174v-777q0 -195 -44 -324.5t-133 -208.5t-225 -111.5t-323 -32.5q-184 0 -320 33.5t-225.5 112.5t-132.5 209t-43 322z" />
<glyph unicode="V" horiz-adv-x="1685" d="M20 1434h191l633 -1287l631 1287h190l-715 -1434h-215z" />
<glyph unicode="W" horiz-adv-x="2308" d="M41 1434h180l404 -1280l411 1280h238l407 -1280l406 1280h180l-463 -1434h-243l-406 1280l-407 -1280h-242z" />
<glyph unicode="X" horiz-adv-x="1652" d="M41 0l676 739l-641 695h233l518 -580l516 580h234l-641 -695l676 -739h-234l-551 625l-551 -625h-235z" />
<glyph unicode="Y" horiz-adv-x="1579" d="M20 1434h207l566 -736l559 736h207l-678 -875v-559h-181v559z" />
<glyph unicode="Z" horiz-adv-x="1669" d="M123 0v123l1167 1167h-1153v144h1387v-123l-1166 -1168h1209v-143h-1444z" />
<glyph unicode="[" horiz-adv-x="858" d="M205 -225v1802h469v-143h-295v-1516h295v-143h-469z" />
<glyph unicode="\" horiz-adv-x="1140" d="M123 1495h190l705 -1556h-180z" />
<glyph unicode="]" horiz-adv-x="858" d="M184 -82h295v1516h-295v143h469v-1802h-469v143z" />
<glyph unicode="^" horiz-adv-x="1175" d="M102 811l373 623h227l371 -623h-199l-286 479l-287 -479h-199z" />
<glyph unicode="_" horiz-adv-x="1392" d="M143 0v143h1106v-143h-1106z" />
<glyph unicode="`" horiz-adv-x="673" d="M123 1475h221l186 -254h-143z" />
<glyph unicode="a" horiz-adv-x="1355" d="M61 334q0 98 44.5 161.5t115 99.5t161.5 49t183 13h514v52q0 80 -36.5 130t-95 78.5t-131.5 39t-142 10.5q-55 0 -117.5 -9.5t-119 -31t-102.5 -59.5t-71 -95l-158 39q29 86 90.5 143.5t140.5 92t166 49t169 14.5q100 0 204.5 -17.5t187.5 -61.5t136 -120.5t53 -193.5 v-717h-174v143q-86 -88 -204.5 -125.5t-239.5 -37.5q-92 0 -192.5 10t-185.5 46t-140.5 106.5t-55.5 191.5zM236 334q0 -74 43 -117t105 -63.5t132 -25.5t123 -5q63 0 141 14.5t143.5 46t110.5 79.5t45 116v153h-497q-156 0 -251 -43t-95 -155z" />
<glyph unicode="b" horiz-adv-x="1460" d="M123 0v1495h174v-557q92 92 217 132t250 40q131 0 246.5 -37t201.5 -108.5t136.5 -178t50.5 -245.5q0 -145 -50.5 -252t-136.5 -175.5t-203.5 -101t-252.5 -32.5q-61 0 -124 7t-122 25.5t-113.5 48t-99.5 74.5v-135h-174zM297 399q0 -74 50 -127t122 -85.5t150.5 -48 t136.5 -15.5q98 0 184 24.5t149.5 75.5t99.5 130.5t36 185.5q0 104 -35 184t-96.5 134t-145.5 82t-184 28q-59 0 -139 -16.5t-153 -51.5t-124 -88t-51 -129v-283z" />
<glyph unicode="c" horiz-adv-x="1378" d="M61 541q0 139 52.5 245.5t140.5 178t204.5 108.5t246.5 37q90 0 183 -16.5t176 -55.5t147.5 -104.5t97.5 -163.5l-158 -39q-20 68 -69.5 114t-112 72.5t-132 38t-132.5 11.5q-100 0 -186.5 -28t-149 -81t-98 -133t-35.5 -186q0 -109 36.5 -188t101 -129t151.5 -74.5 t188 -24.5q63 0 132.5 11t132 38t111 72t68.5 112l160 -39q-33 -98 -96.5 -163.5t-144.5 -104.5t-175 -54t-188 -15q-133 0 -252 32.5t-208 102t-140.5 175t-51.5 251.5z" />
<glyph unicode="d" horiz-adv-x="1460" d="M61 541q0 139 50.5 245.5t136.5 178t201.5 108.5t246.5 37q125 0 250 -40t217 -132v557h174v-1495h-174v135q-45 -45 -99 -74.5t-113.5 -48t-122 -25.5t-123.5 -7q-135 0 -253 32.5t-204 101t-136.5 175.5t-50.5 252zM236 539q0 -106 35.5 -185.5t99 -130.5t149.5 -75.5 t185 -24.5q57 0 136 15.5t150.5 48t121.5 86t50 126.5v283q0 76 -51 129t-124 88t-153.5 51.5t-138.5 16.5q-100 0 -184 -28t-145.5 -82t-96 -134t-34.5 -184z" />
<glyph unicode="e" horiz-adv-x="1396" d="M61 541q0 139 51.5 245.5t138.5 178t202.5 108.5t246.5 37q125 0 239 -35t202 -104.5t140 -171t54 -236.5v-2v-72h-1093q6 -96 47 -164.5t105.5 -113.5t146.5 -66.5t168 -21.5q74 0 142.5 8t129.5 32.5t111.5 68.5t85.5 116l151 -51q-47 -98 -111.5 -159.5t-143.5 -97.5 t-171 -48t-194 -12q-133 0 -251 33.5t-206 102t-139.5 174t-51.5 251.5zM248 633h905q-14 84 -57 146.5t-104.5 104.5t-136.5 62.5t-155 20.5t-154.5 -20.5t-136 -62.5t-104.5 -104.5t-57 -146.5z" />
<glyph unicode="f" horiz-adv-x="1007" d="M41 811v143h227v183q0 96 35 164.5t94.5 111.5t138 62.5t164.5 19.5q66 0 136.5 -13.5t130.5 -39.5l-37 -144q-49 23 -112.5 38.5t-117.5 15.5q-55 0 -103 -10.5t-83 -36t-54.5 -67.5t-19.5 -103v-181h445v-143h-445v-811h-172v811h-227z" />
<glyph unicode="g" horiz-adv-x="1419" d="M61 -59q0 82 44.5 131t113.5 75q-47 23 -68.5 59t-21.5 68q0 51 35 88t78 60q-61 47 -99.5 115.5t-38.5 164.5q0 119 57.5 198t145.5 125t194.5 65.5t203.5 19.5q84 0 166.5 -11.5t160.5 -39.5q31 96 91.5 160.5t166.5 64.5q59 0 99 -20l-31 -142q-29 14 -68 15 q-70 0 -105.5 -33t-58.5 -88q82 -47 130.5 -132t48.5 -182q0 -121 -57.5 -198.5t-145.5 -123.5t-194.5 -64.5t-202.5 -18.5q-90 0 -185.5 15.5t-181.5 54.5q-27 -20 -43 -39t-16 -54q0 -29 17 -45t45 -26t61.5 -13.5t68.5 -3.5h467q72 0 145.5 -11t133 -38.5t96.5 -75 t37 -120.5q0 -115 -68 -180.5t-167 -98.5t-210.5 -41t-199.5 -8q-59 0 -129 3t-142 14.5t-139.5 33t-118.5 57t-83 90t-32 130.5zM236 -55q0 -47 28.5 -80t72.5 -53.5t98 -31.5t106.5 -16.5t95.5 -6.5t68 -1q23 0 66.5 1t96 6.5t106.5 16.5t98 31.5t73 53.5t29 80 q0 35 -19.5 58.5t-47.5 36.5t-61.5 18t-60.5 5h-561q-29 0 -61.5 -5t-60.5 -18t-47 -36.5t-19 -58.5zM281 702q0 -84 42 -135t104 -79.5t137 -38t141 -9.5q63 0 138 9.5t139.5 38t106 79.5t41.5 135t-41.5 135.5t-105 80t-138.5 39t-140 10.5q-66 0 -141 -10.5t-137 -39 t-104 -80t-42 -135.5z" />
<glyph unicode="h" d="M123 0v1495h174v-590q86 109 205 157t254 48q115 0 212 -26.5t167.5 -83t109.5 -143.5t39 -206v-651h-174v651q0 158 -99.5 237t-265.5 79q-78 0 -157.5 -22.5t-144 -68t-105.5 -112t-41 -154.5v-610h-174z" />
<glyph unicode="i" horiz-adv-x="450" d="M113 1382q0 47 32.5 80t79.5 33t80 -33t33 -80t-33 -79.5t-80 -32.5t-79.5 32.5t-32.5 79.5zM139 0v1090h174v-1090h-174z" />
<glyph unicode="j" horiz-adv-x="518" d="M-307 -303l37 143q47 -20 112.5 -36.5t116.5 -16.5q55 0 103.5 10t83 35t54 67t19.5 105v1086h172v-1088q0 -96 -34.5 -164.5t-94 -111.5t-138.5 -62.5t-165 -19.5q-61 0 -136 14t-130 39zM190 1382q0 47 33 80t80 33t80 -33t33 -80t-33 -79.5t-80 -32.5t-80 32.5 t-33 79.5z" />
<glyph unicode="k" horiz-adv-x="1343" d="M123 0v1495h174v-868l670 463h258l-676 -463l794 -627h-260l-671 530l-115 -81v-449h-174z" />
<glyph unicode="l" horiz-adv-x="440" d="M133 0v1495h174v-1495h-174z" />
<glyph unicode="m" horiz-adv-x="2060" d="M123 0v1090h174v-160q68 92 164 136t213 44q135 0 237.5 -47t161.5 -168q76 121 188.5 168t251.5 47q205 0 325 -108.5t120 -329.5v-672h-174v672q0 141 -74 218t-223 77q-76 0 -141.5 -27t-113.5 -75t-76 -113.5t-28 -141.5v-610h-174v672q0 141 -81.5 218t-213.5 77 q-74 0 -139 -28t-114.5 -77t-79 -113.5t-29.5 -138.5v-610h-174z" />
<glyph unicode="n" d="M123 0v1090h174v-185q86 109 205 157t254 48q115 0 212 -26.5t167.5 -83t109.5 -143.5t39 -206v-651h-174v651q0 158 -99.5 237t-265.5 79q-78 0 -157.5 -22.5t-144 -68t-105.5 -112t-41 -154.5v-610h-174z" />
<glyph unicode="o" horiz-adv-x="1409" d="M61 541q0 145 51.5 252.5t138.5 178t203.5 104.5t250.5 34q131 0 248.5 -34t204.5 -104.5t138.5 -178t51.5 -252.5q0 -147 -50.5 -253t-137.5 -174.5t-204.5 -101t-250.5 -32.5t-251 32.5t-205 101t-137.5 174t-50.5 253.5zM236 539q0 -106 35.5 -185.5t98 -130.5 t148.5 -75.5t187 -24.5q100 0 185 24.5t148.5 75.5t99.5 130.5t36 185.5q0 109 -35 188.5t-97.5 132.5t-148.5 80t-188 27t-188.5 -27t-149 -80t-97 -133t-34.5 -188z" />
<glyph unicode="p" horiz-adv-x="1460" d="M123 -406v1496h174v-150q90 90 213 130t246 40q135 0 252.5 -34t203.5 -102.5t136.5 -175t50.5 -251.5q0 -139 -50.5 -245.5t-136.5 -178.5t-201.5 -107.5t-246.5 -35.5q-61 0 -126 7t-125 24.5t-115.5 47t-100.5 74.5v-539h-174zM297 406q0 -76 51 -129.5t124 -87 t153 -50t139 -16.5q100 0 184 27.5t145.5 81t96.5 133.5t35 184q0 106 -36 185t-99.5 130t-149.5 77t-184 26q-57 0 -136 -15.5t-151 -49.5t-122 -87t-50 -127v-282z" />
<glyph unicode="q" horiz-adv-x="1460" d="M61 547q0 145 50.5 251.5t136.5 175t203.5 102.5t253.5 34q123 0 245.5 -40t212.5 -130v150h174v-1496h-174v539q-45 -45 -100 -74.5t-115.5 -47t-125 -24.5t-126.5 -7q-131 0 -246.5 35.5t-201.5 107.5t-136.5 178.5t-50.5 245.5zM236 549q0 -104 34.5 -184t96 -133.5 t145.5 -81t184 -27.5q57 0 138 16.5t154 50t124 87t51 129.5v282q0 74 -50 127t-121.5 87t-150.5 49.5t-136 15.5q-98 0 -184.5 -26t-150 -77t-99 -130t-35.5 -185z" />
<glyph unicode="r" horiz-adv-x="911" d="M123 0v1090h174v-152q68 96 172 136t209 40q102 0 192 -24l-39 -154q-35 14 -71.5 22.5t-81.5 8.5q-78 0 -146.5 -22.5t-121 -68t-83 -110t-30.5 -145.5v-621h-174z" />
<glyph unicode="s" horiz-adv-x="1308" d="M61 260l166 55q37 -63 83 -102t100.5 -61.5t117 -30.5t131.5 -8q63 0 135 5t132.5 22.5t100.5 51t40 93.5q0 61 -41 98t-109.5 57.5t-154.5 31.5t-177 21.5t-177 27t-155 48t-110 84t-41 135.5q0 98 51.5 163t131.5 103t179 52t198 14q84 0 167.5 -11t157.5 -41 t131.5 -82t89.5 -132l-164 -47q-31 53 -69.5 86t-85.5 51.5t-104.5 25.5t-125.5 7t-135 -7t-121.5 -27.5t-88 -56.5t-33.5 -91q0 -53 42 -84t109.5 -48.5t154.5 -26.5t177 -20.5t177 -30t154.5 -53t109.5 -91t42 -144.5q0 -106 -56 -171t-143 -99.5t-190.5 -46t-198.5 -11.5 q-92 0 -182 10.5t-169 42t-143.5 89t-103.5 149.5z" />
<glyph unicode="t" horiz-adv-x="1026" d="M41 946v144h246v344h174v-344h465v-144h-465v-606q0 -66 20.5 -108t56 -66.5t86 -33.5t109.5 -9q25 0 53.5 4t58 10t56.5 16.5t47 22.5l37 -143q-51 -25 -122.5 -39t-129.5 -14q-90 0 -171 16t-142.5 58t-97 110.5t-35.5 173.5v608h-246z" />
<glyph unicode="u" d="M102 438v652h174v-652q0 -158 99.5 -236.5t265.5 -78.5q78 0 158 22.5t144.5 67.5t105.5 111.5t41 154.5v611h174v-1090h-174v184q-86 -109 -205 -156.5t-254 -47.5q-115 0 -212 26.5t-168 82.5t-110 142t-39 207z" />
<glyph unicode="v" horiz-adv-x="1359" d="M20 1090h199l461 -934l461 934h198l-546 -1090h-228z" />
<glyph unicode="w" horiz-adv-x="1966" d="M41 1090h184l291 -940l350 940h232l350 -940l291 940h186l-350 -1090h-240l-352 932l-352 -932h-242z" />
<glyph unicode="x" horiz-adv-x="1382" d="M20 0l555 555l-534 535h238l413 -420l414 420h235l-534 -535l555 -555h-236l-434 440l-434 -440h-238z" />
<glyph unicode="y" horiz-adv-x="1398" d="M41 1090h201l463 -912l452 912h201l-561 -1090q-39 -76 -77 -141.5t-87 -112.5t-114.5 -74.5t-162.5 -27.5q-55 0 -116.5 14t-112.5 39l33 143q41 -25 95 -39t101 -14q49 0 89 17.5t71 46t54.5 65.5t43.5 78z" />
<glyph unicode="z" horiz-adv-x="1294" d="M82 0v123l879 823h-855v144h1086v-123l-881 -824h918v-143h-1147z" />
<glyph unicode="{" horiz-adv-x="917" d="M205 602v146h104q41 0 58.5 27.5t17.5 53.5q0 51 -17.5 108.5t-39 116t-39 116t-17.5 110.5q0 63 17.5 117.5t54.5 94.5t96.5 62.5t143.5 22.5h149v-143h-135q-68 0 -110 -39t-42 -115q0 -47 17.5 -105.5t37 -120t37 -119.5t17.5 -106q0 -47 -28.5 -88t-67.5 -65 q39 -25 67.5 -66t28.5 -88t-17.5 -105.5t-37 -119.5t-37 -119.5t-17.5 -105.5q0 -76 42 -115t110 -39h135v-143h-149q-84 0 -143.5 22.5t-96.5 62.5t-54.5 94t-17.5 118q0 51 17.5 108.5t39 115.5t39 115.5t17.5 110.5q0 27 -17.5 55.5t-58.5 26.5z" />
<glyph unicode="|" horiz-adv-x="768" d="M307 -307v2048h154v-2048h-154z" />
<glyph unicode="}" horiz-adv-x="917" d="M184 -82h135q68 0 110 39t42 115q0 47 -17.5 105.5t-37 119.5t-37 119.5t-17.5 105.5t29 88t68 66q-39 25 -68 65.5t-29 87.5t17.5 105.5t37 120t37 120t17.5 105.5q0 76 -42 115t-110 39h-135v143h150q84 0 143.5 -22.5t96 -62.5t54 -94.5t17.5 -117.5 q0 -53 -17.5 -110.5t-39 -116t-39 -115.5t-17.5 -109q0 -27 17.5 -54t58.5 -27h105v-146l-105 2q-41 2 -58.5 -26.5t-17.5 -55.5q0 -53 17.5 -110.5t39 -115.5t39 -115.5t17.5 -108.5q0 -63 -17.5 -117.5t-54 -94.5t-96 -62.5t-143.5 -22.5h-150v143z" />
<glyph unicode="~" horiz-adv-x="921" d="M102 1221q2 98 59.5 155.5t153.5 57.5q57 0 94 -20.5t66 -45.5t57.5 -45t67.5 -20q47 0 72.5 28.5t27.5 67.5h119q-2 -98 -61.5 -155.5t-155.5 -57.5q-57 0 -94 20.5t-65.5 45t-57.5 45t-68 20.5q-47 0 -72.5 -28.5t-27.5 -67.5h-115z" />
<glyph unicode="&#xa1;" horiz-adv-x="634" d="M195 987q0 51 35.5 87t86.5 36t87 -36t36 -87t-35.5 -87t-87.5 -36q-51 0 -86.5 36t-35.5 87zM217 -406l41 1106h119l41 -1106h-201z" />
<glyph unicode="&#xa2;" horiz-adv-x="1431" d="M102 713q0 135 45.5 235.5t121 170t176 108.5t212.5 49v158h170v-158q82 -6 159 -25.5t141.5 -58.5t113.5 -100.5t80 -149.5l-158 -39q-18 55 -52 95t-79 68t-98 43t-107 21v-833q55 6 108.5 21.5t100.5 43t82 68.5t53 98l158 -39q-31 -90 -81 -151.5t-115.5 -100 t-143.5 -58t-162 -25.5v-154h-170v154q-119 10 -220 48t-176 106.5t-117 169t-42 235.5zM276 711q0 -94 29 -167t79 -124t119.5 -82t153.5 -41v833q-82 -10 -151.5 -40.5t-120.5 -83t-80 -126t-29 -169.5z" />
<glyph unicode="&#xa3;" horiz-adv-x="1673" d="M86 586v143h180q-23 63 -40 128t-17 132q0 117 48 205t127 145.5t179.5 86t206.5 28.5q94 0 185.5 -15.5t170 -52t139 -101t95.5 -163.5l-164 -45q-20 66 -66.5 111t-105.5 72.5t-126 39t-128 11.5q-74 0 -144.5 -19.5t-123.5 -59.5t-86 -100.5t-33 -142.5 q0 -66 16.5 -131t36.5 -129h574v-143h-537q6 -41 6 -82q0 -98 -28.5 -191.5t-92.5 -167.5q66 14 134.5 16.5t136.5 2.5q59 0 117.5 -9.5t117 -20.5t116.5 -20.5t118 -9.5q53 0 110.5 6.5t105.5 27t84 58t46 101.5l155 -33q-18 -94 -67 -153.5t-119 -92t-151.5 -45 t-163.5 -12.5q-59 0 -117.5 9.5t-117 20.5t-117 20t-117.5 9q-127 0 -245 -16t-241 -51l-53 145q61 20 104.5 65.5t69 102t37.5 118.5t12 122q0 39 -6 80h-221z" />
<glyph unicode="&#xa4;" horiz-adv-x="1927" d="M102 494v143h179q-2 20 -2 39.5v42.5v42t2 40h-179v143h201q33 133 103.5 229.5t174 159t234.5 92t283 29.5q106 0 216.5 -18.5t206 -63.5t168 -120.5t107.5 -192.5l-170 -39q-23 84 -79 140.5t-131 90t-157.5 47t-158.5 13.5q-231 0 -394 -88t-223 -279h840l-41 -143 h-825q-2 -20 -3 -40t-1 -42q0 -23 1 -42.5t3 -39.5h776l-43 -143h-705q61 -188 225 -279.5t390 -91.5q68 0 148.5 10t155.5 37t135 73t89 119l176 -28q-37 -109 -114.5 -177.5t-176 -107.5t-207 -54t-208.5 -15q-152 0 -283 29.5t-234.5 93t-174 160.5t-103.5 231h-201z" />
<glyph unicode="&#xa5;" horiz-adv-x="1619" d="M41 1434h215l555 -723l553 723h215l-567 -732h450v-143h-563v-164h563v-143h-563v-252h-178v252h-563v143h563v164h-563v143h450z" />
<glyph unicode="&#xa6;" horiz-adv-x="768" d="M307 -307v868h154v-868h-154zM307 872v869h154v-869h-154z" />
<glyph unicode="&#xa7;" horiz-adv-x="1632" d="M117 575q0 92 44 152.5t107 101.5q-55 37 -88 91.5t-33 134.5q0 119 67 196.5t165 123.5t214 65.5t214 19.5q106 0 213.5 -14t201 -53t167 -106.5t110.5 -174.5l-158 -37q-27 80 -86 129t-133.5 76t-159.5 36t-161 9q-70 0 -153 -9t-155.5 -38t-120.5 -82t-48 -141 q0 -68 52 -105t136 -55t192.5 -26.5t222 -18.5t222 -28.5t192.5 -59.5t136.5 -110.5t52.5 -180.5q0 -92 -45 -152.5t-111 -101.5q57 -37 91 -91t34 -134q0 -119 -66.5 -197t-165 -124t-214 -65.5t-213.5 -19.5q-106 0 -214 14.5t-201 53.5t-167 106.5t-111 173.5l158 37 q27 -80 86.5 -129t134 -75.5t158.5 -36t162 -9.5q70 0 152.5 9.5t155.5 38t121 82t48 141.5q0 68 -52 104.5t-136 55t-192.5 26.5t-222.5 18.5t-222.5 29t-192.5 59.5t-136 110.5t-52 179.5zM299 575q0 -74 45 -118.5t119 -70.5t171 -37t200.5 -19t207 -18.5t191.5 -35.5 q51 31 83 78t32 117q0 74 -45.5 119t-120 69.5t-171 36t-200.5 20.5t-207.5 19t-191.5 35q-51 -29 -82 -77t-31 -118z" />
<glyph unicode="&#xa8;" horiz-adv-x="839" d="M82 1321q0 47 32.5 80t80.5 33q47 0 79.5 -33t32.5 -80t-32.5 -80t-79.5 -33t-80 33t-33 80zM532 1321q0 47 33 80t80 33t80 -33t33 -80t-33 -80t-80 -33t-80 33t-33 80z" />
<glyph unicode="&#xa9;" horiz-adv-x="1787" d="M76 719q0 180 62.5 317.5t172 230.5t259 140t323.5 47q172 0 321.5 -47t260 -139t174 -230.5t63.5 -318.5t-62.5 -318.5t-172 -231.5t-260 -141t-324.5 -48q-178 0 -327.5 48t-259 141t-170 231.5t-60.5 318.5zM227 719q0 -152 50.5 -265.5t138.5 -189.5t210 -113.5 t267 -37.5t268 37.5t212 112.5t138.5 188.5t49.5 267.5q0 152 -50.5 264.5t-139.5 188t-212 112.5t-266 37q-147 0 -270 -36t-211 -109.5t-136.5 -187.5t-48.5 -269zM436 717q0 104 36 181t99.5 127t148.5 74.5t181 24.5q66 0 129.5 -13t117.5 -43t94 -78t61 -116l-138 -30 q-12 43 -38.5 72.5t-63.5 48t-79 25.5t-83 7q-68 0 -127 -16t-102 -50t-68.5 -87t-25.5 -127q0 -72 25.5 -125t69.5 -88t102.5 -51.5t125.5 -16.5q37 0 77 5t77 19.5t66.5 39t45.5 63.5l142 -24q-23 -66 -66 -110t-98 -70.5t-117.5 -38t-126.5 -11.5q-98 0 -182 24.5 t-147.5 75t-99.5 127t-36 181.5z" />
<glyph unicode="&#xaa;" horiz-adv-x="1157" d="M80 834q0 80 35 130t92 78.5t130 39t146 10.5h412v41q0 63 -29.5 103t-77 63.5t-105.5 31.5t-114 8q-43 0 -93 -7t-95 -24.5t-83 -48t-56 -75.5l-125 30q23 70 72 116t112.5 74t133 39t134.5 11q80 0 163 -14.5t150.5 -49t109.5 -96t42 -155.5v-574h-139v115 q-70 -70 -164 -100.5t-192 -30.5q-74 0 -155 8t-148.5 37t-111.5 86t-44 154zM219 834q0 -59 35 -94t85 -51.5t105.5 -20.5t98.5 -4q51 0 112.5 12t114.5 36.5t89 63.5t36 92v123h-399q-123 0 -200 -33.5t-77 -123.5z" />
<glyph unicode="&#xab;" horiz-adv-x="1449" d="M143 449v190l643 453v-179l-526 -368l526 -369v-178zM664 449v190l643 453v-179l-529 -368l529 -369v-178z" />
<glyph unicode="&#xad;" horiz-adv-x="1126" d="M143 489v144h840v-144h-840z" />
<glyph unicode="&#xae;" horiz-adv-x="1787" d="M76 719q0 180 62.5 317.5t172 230.5t259 140t323.5 47q172 0 321.5 -47t260 -139t174 -230.5t63.5 -318.5t-62.5 -318.5t-172 -231.5t-260 -141t-324.5 -48q-178 0 -327.5 48t-259 141t-170 231.5t-60.5 318.5zM227 719q0 -152 50.5 -265.5t138.5 -189.5t210 -113.5 t267 -37.5t268 37.5t212 112.5t138.5 188.5t49.5 267.5q0 152 -50.5 264.5t-139.5 188t-212 112.5t-266 37q-147 0 -270 -36t-211 -109.5t-136.5 -187.5t-48.5 -269zM547 360v730h491q49 0 94.5 -13.5t81 -41t56 -67.5t20.5 -94q0 -90 -49 -144t-133 -68q51 -70 110.5 -152 t100.5 -150h-148l-200 295h-291v-295h-133zM680 756h358q49 0 85 27.5t36 86.5q0 53 -36 84t-85 31h-358v-229z" />
<glyph unicode="&#xaf;" horiz-adv-x="798" d="M123 1251v123h553v-123h-553z" />
<glyph unicode="&#xb0;" horiz-adv-x="1030" d="M102 1090q0 92 31 159.5t86 111.5t131 66.5t166 22.5q88 0 164 -22.5t131 -66.5t86 -111.5t31 -159.5q0 -90 -32 -157t-87 -110t-130 -64.5t-163 -21.5t-164 21.5t-131 64.5t-87 109.5t-32 157.5zM256 1092q0 -117 73.5 -176.5t186.5 -59.5t185.5 59.5t72.5 176.5 t-70.5 178t-187.5 61t-188.5 -61.5t-71.5 -177.5z" />
<glyph unicode="&#xb1;" horiz-adv-x="1187" d="M123 90v143h942v-143h-942zM123 776v144h399v399h144v-399h399v-144h-399v-399h-144v399h-399z" />
<glyph unicode="&#xb2;" horiz-adv-x="1003" d="M123 688q0 94 36 155.5t92 100.5t125.5 62.5t135.5 42.5q43 12 84 24t71.5 27.5t49 37t18.5 52.5q0 43 -22.5 72.5t-56 48t-74.5 25.5t-76 7t-74 -7t-74.5 -23.5t-63.5 -45t-40 -73.5l-121 29q18 61 58 103t91.5 67.5t109 38t112.5 12.5q57 0 120.5 -13.5t117 -43 t87 -78.5t33.5 -119q0 -57 -27.5 -96t-71.5 -66t-101.5 -44t-116.5 -34q-49 -12 -95.5 -25.5t-85 -30.5t-66.5 -42t-36 -64h619v-100h-758z" />
<glyph unicode="&#xb3;" horiz-adv-x="1628" d="M436 891l117 33q14 -43 43 -72t63.5 -45t74.5 -22.5t77 -6.5q33 0 77 5t83 20.5t65.5 42t26.5 69.5q0 27 -13.5 47.5t-34 34t-46 19.5t-47.5 6h-199v100h199q41 0 73.5 20.5t32.5 67.5q0 39 -22.5 66t-55 41t-71.5 20t-70 6q-35 0 -74 -7t-74.5 -23.5t-64.5 -44 t-39 -68.5l-115 33q18 59 57.5 100t90.5 65.5t107.5 35t107.5 10.5q55 0 116.5 -11.5t113.5 -38t86 -71.5t34 -113q0 -41 -24.5 -74.5t-61.5 -56.5q51 -23 86 -66t35 -98q0 -74 -38 -119.5t-95.5 -71.5t-123 -36t-122.5 -10t-114.5 8t-108.5 31.5t-91 65.5t-61 108z" />
<glyph unicode="&#xb4;" horiz-adv-x="673" d="M143 1221l187 254h221l-264 -254h-144z" />
<glyph unicode="&#xb5;" d="M102 -410v1500h174v-613q0 -88 40 -154.5t104.5 -110.5t143.5 -66.5t157 -22.5q61 0 126.5 19.5t119 57.5t88.5 92t35 124v674h174v-674q0 -111 -46.5 -193t-122 -136t-172 -80.5t-194.5 -26.5q-135 0 -252 44t-201 156v-590h-174z" />
<glyph unicode="&#xb6;" horiz-adv-x="1847" d="M82 1020q0 100 39 178t104.5 130t151.5 79t178 27h1026v-1844h-174v1700h-246v-1700h-174v1016h-479q-88 0 -166 31t-135 86t-91 131t-34 166z" />
<glyph unicode="&#xb7;" horiz-adv-x="491" d="M123 565q0 51 36 87t87 36t87 -36t36 -87t-36 -87t-87 -36t-87 36t-36 87z" />
<glyph unicode="&#xb8;" horiz-adv-x="741" d="M113 -289l120 37q16 -31 47 -47t80 -16q14 0 34 3t37.5 11t28.5 21.5t11 35.5q0 45 -47 60.5t-102 15.5q-12 0 -27.5 -1t-26.5 -1l86 170h92l-45 -96q41 0 79 -8.5t68 -25.5t48 -46t18 -68q0 -90 -74.5 -134t-179.5 -44q-96 0 -159.5 34t-87.5 99z" />
<glyph unicode="&#xb9;" horiz-adv-x="892" d="M178 1298l258 136h99v-746h-129v619l-181 -97z" />
<glyph unicode="&#xba;" horiz-adv-x="1234" d="M98 997q0 117 41 203t112 142.5t165 84t200 27.5t200.5 -27.5t165.5 -84t113 -142.5t42 -203q0 -119 -41 -203.5t-112 -140t-166 -81t-202 -25.5q-109 0 -203 25.5t-163.5 81t-110.5 140.5t-41 203zM246 995q0 -84 28.5 -145.5t77.5 -102t117 -60t147 -19.5 q80 0 147.5 19.5t118 60t79 102t28.5 145.5q0 86 -27.5 148.5t-76.5 104.5t-118 62.5t-151 20.5t-149.5 -20.5t-116.5 -62.5t-76.5 -104.5t-27.5 -148.5z" />
<glyph unicode="&#xbb;" horiz-adv-x="1449" d="M143 -2v178l527 369l-527 368v179l643 -453v-190zM664 -2v178l526 369l-526 368v179l643 -453v-190z" />
<glyph unicode="&#xbc;" horiz-adv-x="1808" d="M123 1298l258 136h98v-746h-129v619l-180 -97zM176 -61l1141 1556h158l-1151 -1556h-148zM852 168v84l545 493h147v-477h142v-100h-142v-168h-129v168h-563zM1028 268h387v348z" />
<glyph unicode="&#xbd;" horiz-adv-x="1798" d="M123 -61l1141 1556h157l-1151 -1556h-147zM131 1298l258 136h98v-746h-129v619l-180 -97zM918 0q0 94 35.5 155.5t92 100.5t126 62.5t135.5 41.5q43 12 84 24.5t71.5 28t49 37t18.5 52.5q0 43 -22.5 72.5t-56.5 48t-75 25.5t-76 7t-73.5 -7t-74.5 -23.5t-63.5 -45 t-39.5 -73.5l-121 29q18 61 58 103t91 67.5t108.5 38t112.5 12.5q57 0 121 -13.5t117 -43t87 -79t34 -118.5q0 -57 -27.5 -96t-72 -66t-101.5 -44t-117 -34q-49 -12 -95 -25.5t-85 -31t-66.5 -42t-35.5 -63.5h618v-100h-757z" />
<glyph unicode="&#xbe;" horiz-adv-x="2011" d="M123 891l117 33q14 -43 42.5 -72t63.5 -45t75 -22.5t77 -6.5q33 0 76.5 5t82.5 20.5t66 42t27 69.5q0 27 -13.5 47.5t-34 34t-46 19.5t-48.5 6h-198v100h198q41 0 74 20.5t33 67.5q0 39 -22.5 66t-55.5 41t-72 20t-69 6q-35 0 -74 -7t-75 -23.5t-64.5 -44t-38.5 -68.5 l-115 33q18 59 57 100t90.5 65.5t107.5 35t108 10.5q55 0 116.5 -11.5t113.5 -38t86 -71.5t34 -113q0 -41 -24.5 -74.5t-61.5 -56.5q51 -23 86 -66t35 -98q0 -74 -38 -119.5t-95.5 -71.5t-123 -36t-122.5 -10t-114.5 8t-109 31.5t-91.5 65.5t-60 108zM379 -61l1141 1556h157 l-1151 -1556h-147zM1055 168v84l544 493h148v-477h141v-100h-141v-168h-129v168h-563zM1231 268h387v348z" />
<glyph unicode="&#xbf;" horiz-adv-x="1554" d="M82 66q0 88 27.5 143t72.5 90t103.5 54.5t119 36t119 34.5t103.5 51t72.5 86t27.5 139h141q0 -111 -26.5 -182.5t-69.5 -115.5t-98.5 -67.5t-113.5 -38.5t-113.5 -28.5t-98.5 -36t-69.5 -60.5t-26.5 -105q0 -92 52 -148.5t129 -87.5t164 -41t157 -10q78 0 162.5 12 t160.5 45t134.5 88.5t82.5 141.5l158 -39q-37 -111 -110.5 -187t-169 -121t-204 -64.5t-214.5 -19.5q-100 0 -217 19.5t-218.5 69t-169 132.5t-67.5 210zM672 987q0 51 35.5 87t87.5 36q51 0 87 -36t36 -87t-36 -87t-87 -36t-87 36t-36 87z" />
<glyph unicode="&#xc0;" horiz-adv-x="1685" d="M20 0l717 1434h211l717 -1434h-190l-209 430h-846l-209 -430h-191zM489 571h707l-352 734zM584 1819h221l186 -254h-143z" />
<glyph unicode="&#xc1;" horiz-adv-x="1685" d="M20 0l717 1434h211l717 -1434h-190l-209 430h-846l-209 -430h-191zM489 571h707l-352 734zM766 1565l187 254h221l-264 -254h-144z" />
<glyph unicode="&#xc2;" horiz-adv-x="1685" d="M20 0l717 1434h211l717 -1434h-190l-209 430h-846l-209 -430h-191zM489 571h707l-352 734zM555 1544l186 254h201l186 -254h-141l-145 158l-144 -158h-143z" />
<glyph unicode="&#xc3;" horiz-adv-x="1685" d="M20 0l717 1434h211l717 -1434h-190l-209 430h-846l-209 -430h-191zM484 1565q2 98 59 155.5t154 57.5q57 0 94 -20.5t65.5 -45.5t57 -45t67.5 -20q47 0 73 28.5t28 67.5h118q-2 -98 -61 -155.5t-156 -57.5q-57 0 -94 20.5t-65.5 45t-57 45t-67.5 20.5q-47 0 -73 -28.5 t-28 -67.5h-114zM489 571h707l-352 734z" />
<glyph unicode="&#xc4;" horiz-adv-x="1685" d="M20 0l717 1434h211l717 -1434h-190l-209 430h-846l-209 -430h-191zM489 571h707l-352 734zM504 1665q0 47 32.5 80t80.5 33q47 0 79.5 -33t32.5 -80t-32.5 -80t-79.5 -33t-80 33t-33 80zM954 1665q0 47 33 80t80 33t80 -33t33 -80t-33 -80t-80 -33t-80 33t-33 80z" />
<glyph unicode="&#xc5;" horiz-adv-x="1685" d="M20 0l670 1337q-41 23 -64.5 61t-23.5 93q0 98 70.5 146.5t171.5 48.5q100 0 169.5 -48.5t69.5 -146.5q0 -55 -23.5 -93t-64.5 -61l670 -1337h-190l-209 430h-846l-209 -430h-191zM489 571h707l-352 734zM719 1491q0 -47 32.5 -71.5t92.5 -24.5q59 0 91 24.5t32 71.5 q0 98 -123 98q-125 0 -125 -98z" />
<glyph unicode="&#xc6;" horiz-adv-x="2703" d="M29 0l1177 1434h1383v-144h-1119v-479h990v-143h-990v-525h1131v-143h-1305v430h-706l-354 -430h-207zM705 571h591v719z" />
<glyph unicode="&#xc7;" horiz-adv-x="1710" d="M102 719q0 195 60.5 334t168 228t258 131t333.5 42q106 0 216.5 -18.5t206 -63.5t168 -120.5t107.5 -192.5l-170 -39q-23 84 -79 140.5t-131 90t-158 47t-158 13.5q-145 0 -265 -35t-205 -106.5t-131.5 -183.5t-46.5 -267q0 -152 47.5 -263.5t133.5 -185t204.5 -110.5 t262.5 -37q68 0 148.5 10t155.5 37t135 73t89 119l176 -28q-37 -104 -110.5 -172t-168 -108t-197.5 -56t-202 -18l-24 -66q33 0 70.5 -8t70.5 -24.5t54.5 -44t21.5 -66.5q0 -45 -26.5 -76t-66.5 -50.5t-85 -27.5t-82 -8q-35 0 -70 5t-67.5 18.5t-58 36t-40.5 57.5l123 36 q37 -55 107 -55q14 0 34.5 2t39 8.5t30.5 18.5t12 35q0 29 -25.5 43t-59.5 20t-68.5 6t-53.5 -2l66 144q-168 8 -306 54t-236.5 136t-153 226.5t-54.5 320.5z" />
<glyph unicode="&#xc8;" horiz-adv-x="1570" d="M164 0v1434h1292v-144h-1118v-479h989v-143h-989v-525h1130v-143h-1304zM582 1819h221l186 -254h-143z" />
<glyph unicode="&#xc9;" horiz-adv-x="1570" d="M164 0v1434h1292v-144h-1118v-479h989v-143h-989v-525h1130v-143h-1304zM753 1565l187 254h221l-264 -254h-144z" />
<glyph unicode="&#xca;" horiz-adv-x="1570" d="M164 0v1434h1292v-144h-1118v-479h989v-143h-989v-525h1130v-143h-1304zM531 1544l186 254h201l186 -254h-141l-145 158l-144 -158h-143z" />
<glyph unicode="&#xcb;" horiz-adv-x="1570" d="M164 0v1434h1292v-144h-1118v-479h989v-143h-989v-525h1130v-143h-1304zM516 1665q0 47 32.5 80t80.5 33q47 0 79.5 -33t32.5 -80t-32.5 -80t-79.5 -33t-80 33t-33 80zM966 1665q0 47 33 80t80 33t80 -33t33 -80t-33 -80t-80 -33t-80 33t-33 80z" />
<glyph unicode="&#xcc;" horiz-adv-x="542" d="M21 1819h221l186 -254h-143zM184 0v1434h174v-1434h-174z" />
<glyph unicode="&#xcd;" horiz-adv-x="542" d="M161 1565l187 254h221l-264 -254h-144zM184 0v1434h174v-1434h-174z" />
<glyph unicode="&#xce;" horiz-adv-x="542" d="M-12 1544l186 254h201l186 -254h-141l-145 158l-144 -158h-143zM184 0v1434h174v-1434h-174z" />
<glyph unicode="&#xcf;" horiz-adv-x="542" d="M-63 1665q0 47 32.5 80t80.5 33q47 0 79.5 -33t32.5 -80t-32.5 -80t-79.5 -33t-80 33t-33 80zM184 0v1434h174v-1434h-174zM387 1665q0 47 33 80t80 33t80 -33t33 -80t-33 -80t-80 -33t-80 33t-33 80z" />
<glyph unicode="&#xd0;" horiz-adv-x="1736" d="M0 651v123h164v660h620q180 0 336 -39t270.5 -124t179 -221t64.5 -331t-61.5 -332t-170 -223t-256 -125t-319.5 -39h-663v651h-164zM334 143h473q145 0 265 32t205 100.5t132 178t47 265.5t-50 265.5t-139 177t-212 98t-271 30.5h-450v-516h362v-123h-362v-508z" />
<glyph unicode="&#xd1;" horiz-adv-x="1824" d="M164 0v1434h262l1061 -1291v1291h174v-1434h-264l-1059 1290v-1290h-174zM564 1565q2 98 59 155.5t154 57.5q57 0 94 -20.5t65.5 -45.5t57 -45t67.5 -20q47 0 73 28.5t28 67.5h118q-2 -98 -61 -155.5t-156 -57.5q-57 0 -94 20.5t-65.5 45t-57 45t-67.5 20.5 q-47 0 -73 -28.5t-28 -67.5h-114z" />
<glyph unicode="&#xd2;" horiz-adv-x="1824" d="M92 719q0 195 62.5 334t173 228t260 131t323.5 42q176 0 327 -42t260.5 -131t172 -228t62.5 -334t-61.5 -334t-171 -229t-260 -133t-329.5 -43q-176 0 -326.5 43t-260 133t-171 229t-61.5 334zM266 719q0 -156 47 -268.5t132 -185t204 -107.5t262 -35t262 35t205 107.5 t133.5 185t47.5 268.5t-48.5 267.5t-134.5 184t-204.5 106.5t-260.5 34q-141 0 -260 -34t-204 -106.5t-133 -184.5t-48 -267zM684 1819h221l186 -254h-143z" />
<glyph unicode="&#xd3;" horiz-adv-x="1824" d="M92 719q0 195 62.5 334t173 228t260 131t323.5 42q176 0 327 -42t260.5 -131t172 -228t62.5 -334t-61.5 -334t-171 -229t-260 -133t-329.5 -43q-176 0 -326.5 43t-260 133t-171 229t-61.5 334zM266 719q0 -156 47 -268.5t132 -185t204 -107.5t262 -35t262 35t205 107.5 t133.5 185t47.5 268.5t-48.5 267.5t-134.5 184t-204.5 106.5t-260.5 34q-141 0 -260 -34t-204 -106.5t-133 -184.5t-48 -267zM813 1565l187 254h221l-264 -254h-144z" />
<glyph unicode="&#xd4;" horiz-adv-x="1824" d="M92 719q0 195 62.5 334t173 228t260 131t323.5 42q176 0 327 -42t260.5 -131t172 -228t62.5 -334t-61.5 -334t-171 -229t-260 -133t-329.5 -43q-176 0 -326.5 43t-260 133t-171 229t-61.5 334zM266 719q0 -156 47 -268.5t132 -185t204 -107.5t262 -35t262 35t205 107.5 t133.5 185t47.5 268.5t-48.5 267.5t-134.5 184t-204.5 106.5t-260.5 34q-141 0 -260 -34t-204 -106.5t-133 -184.5t-48 -267zM625 1544l186 254h201l186 -254h-141l-145 158l-144 -158h-143z" />
<glyph unicode="&#xd5;" horiz-adv-x="1824" d="M92 719q0 195 62.5 334t173 228t260 131t323.5 42q176 0 327 -42t260.5 -131t172 -228t62.5 -334t-61.5 -334t-171 -229t-260 -133t-329.5 -43q-176 0 -326.5 43t-260 133t-171 229t-61.5 334zM266 719q0 -156 47 -268.5t132 -185t204 -107.5t262 -35t262 35t205 107.5 t133.5 185t47.5 268.5t-48.5 267.5t-134.5 184t-204.5 106.5t-260.5 34q-141 0 -260 -34t-204 -106.5t-133 -184.5t-48 -267zM553 1565q2 98 59 155.5t154 57.5q57 0 94 -20.5t65.5 -45.5t57 -45t67.5 -20q47 0 73 28.5t28 67.5h118q-2 -98 -61 -155.5t-156 -57.5 q-57 0 -94 20.5t-65.5 45t-57 45t-67.5 20.5q-47 0 -73 -28.5t-28 -67.5h-114z" />
<glyph unicode="&#xd6;" horiz-adv-x="1824" d="M92 719q0 195 62.5 334t173 228t260 131t323.5 42q176 0 327 -42t260.5 -131t172 -228t62.5 -334t-61.5 -334t-171 -229t-260 -133t-329.5 -43q-176 0 -326.5 43t-260 133t-171 229t-61.5 334zM266 719q0 -156 47 -268.5t132 -185t204 -107.5t262 -35t262 35t205 107.5 t133.5 185t47.5 268.5t-48.5 267.5t-134.5 184t-204.5 106.5t-260.5 34q-141 0 -260 -34t-204 -106.5t-133 -184.5t-48 -267zM574 1665q0 47 32.5 80t80.5 33q47 0 79.5 -33t32.5 -80t-32.5 -80t-79.5 -33t-80 33t-33 80zM1024 1665q0 47 33 80t80 33t80 -33t33 -80t-33 -80 t-80 -33t-80 33t-33 80z" />
<glyph unicode="&#xd7;" horiz-adv-x="1218" d="M193 274l296 297l-296 299l108 109l297 -299l299 299l109 -109l-299 -299l299 -297l-109 -108l-299 297l-297 -297z" />
<glyph unicode="&#xd8;" horiz-adv-x="1845" d="M102 719q0 195 60.5 334t168 228t258 131t333.5 42q152 0 280.5 -28.5t233.5 -90.5l94 99h192l-178 -181q96 -90 147.5 -221t51.5 -313q0 -195 -60.5 -334t-169 -229t-260 -133t-331.5 -43q-154 0 -284 29.5t-235 92.5l-100 -102h-180l178 180q-96 92 -147.5 225.5 t-51.5 313.5zM276 719q0 -139 37 -243.5t105 -176.5l903 922q-78 47 -179.5 68.5t-219.5 21.5q-147 0 -266 -34t-204 -106.5t-130.5 -184.5t-45.5 -267zM518 219q80 -49 181.5 -72.5t222.5 -23.5q147 0 266 35t204 107.5t131 185t46 268.5q0 141 -37 243.5t-105 174.5z" />
<glyph unicode="&#xd9;" horiz-adv-x="1732" d="M143 657v777h174v-777q0 -147 32 -248.5t98.5 -165t170 -92t246.5 -28.5t246.5 28.5t171.5 92t100.5 166t32.5 247.5v777h174v-777q0 -195 -44 -324.5t-133 -208.5t-225 -111.5t-323 -32.5q-184 0 -320 33.5t-225.5 112.5t-132.5 209t-43 322zM662 1819h221l186 -254 h-143z" />
<glyph unicode="&#xda;" horiz-adv-x="1732" d="M143 657v777h174v-777q0 -147 32 -248.5t98.5 -165t170 -92t246.5 -28.5t246.5 28.5t171.5 92t100.5 166t32.5 247.5v777h174v-777q0 -195 -44 -324.5t-133 -208.5t-225 -111.5t-323 -32.5q-184 0 -320 33.5t-225.5 112.5t-132.5 209t-43 322zM716 1565l187 254h221 l-264 -254h-144z" />
<glyph unicode="&#xdb;" horiz-adv-x="1732" d="M143 657v777h174v-777q0 -147 32 -248.5t98.5 -165t170 -92t246.5 -28.5t246.5 28.5t171.5 92t100.5 166t32.5 247.5v777h174v-777q0 -195 -44 -324.5t-133 -208.5t-225 -111.5t-323 -32.5q-184 0 -320 33.5t-225.5 112.5t-132.5 209t-43 322zM580 1544l186 254h201 l186 -254h-141l-145 158l-144 -158h-143z" />
<glyph unicode="&#xdc;" horiz-adv-x="1732" d="M143 657v777h174v-777q0 -147 32 -248.5t98.5 -165t170 -92t246.5 -28.5t246.5 28.5t171.5 92t100.5 166t32.5 247.5v777h174v-777q0 -195 -44 -324.5t-133 -208.5t-225 -111.5t-323 -32.5q-184 0 -320 33.5t-225.5 112.5t-132.5 209t-43 322zM528 1665q0 47 32.5 80 t80.5 33q47 0 79.5 -33t32.5 -80t-32.5 -80t-79.5 -33t-80 33t-33 80zM978 1665q0 47 33 80t80 33t80 -33t33 -80t-33 -80t-80 -33t-80 33t-33 80z" />
<glyph unicode="&#xdd;" horiz-adv-x="1619" d="M40 1434h207l566 -736l559 736h207l-678 -875v-559h-181v559zM745 1565l187 254h221l-264 -254h-144z" />
<glyph unicode="&#xde;" horiz-adv-x="1691" d="M164 0v1434h174v-287h784q92 0 177 -26.5t149.5 -79t102.5 -130.5t38 -178t-38 -178t-102.5 -130t-149.5 -79t-177 -27h-784v-319h-174zM338 463h778q129 0 214 70.5t85 199.5t-85 200t-214 71h-778v-541z" />
<glyph unicode="&#xdf;" horiz-adv-x="1480" d="M143 0v1016q0 123 40 216t112 156.5t171 95.5t216 32q96 0 191.5 -20.5t172 -67t125 -123t48.5 -189.5q0 -45 -14.5 -90t-40 -85t-60.5 -70.5t-78 -49.5q80 -10 149.5 -44t122 -87t83 -123.5t30.5 -152.5q0 -111 -42 -192t-112.5 -135t-163 -80.5t-192.5 -26.5 q-80 0 -153.5 11t-138 40.5t-116 82t-81.5 132.5l166 43q20 -51 55 -84t78 -51.5t91 -24.5t99 -6q66 0 127.5 18.5t107.5 55t73.5 91t27.5 126.5q0 86 -40 145t-102.5 97t-139 55.5t-148.5 17.5h-109l-32 139h141q49 0 92 20.5t77 55.5t53.5 80t19.5 92q0 74 -34 123 t-87.5 79t-118 42t-125.5 12q-166 0 -266.5 -94t-100.5 -262v-1016h-174z" />
<glyph unicode="&#xe0;" horiz-adv-x="1345" d="M61 334q0 98 44.5 161.5t115 99.5t161.5 49t183 13h514v52q0 80 -36.5 130t-95 78.5t-131.5 39t-142 10.5q-55 0 -117.5 -9.5t-119 -31t-102.5 -59.5t-71 -95l-158 39q29 86 90.5 143.5t140.5 92t166 49t169 14.5q100 0 204.5 -17.5t187.5 -61.5t136 -120.5t53 -193.5 v-717h-174v143q-86 -88 -204.5 -125.5t-239.5 -37.5q-92 0 -192.5 10t-185.5 46t-140.5 106.5t-55.5 191.5zM236 334q0 -74 43 -117t105 -63.5t132 -25.5t123 -5q63 0 141 14.5t143.5 46t110.5 79.5t45 116v153h-497q-156 0 -251 -43t-95 -155zM459 1475h221l186 -254h-143z " />
<glyph unicode="&#xe1;" horiz-adv-x="1345" d="M61 334q0 98 44.5 161.5t115 99.5t161.5 49t183 13h514v52q0 80 -36.5 130t-95 78.5t-131.5 39t-142 10.5q-55 0 -117.5 -9.5t-119 -31t-102.5 -59.5t-71 -95l-158 39q29 86 90.5 143.5t140.5 92t166 49t169 14.5q100 0 204.5 -17.5t187.5 -61.5t136 -120.5t53 -193.5 v-717h-174v143q-86 -88 -204.5 -125.5t-239.5 -37.5q-92 0 -192.5 10t-185.5 46t-140.5 106.5t-55.5 191.5zM236 334q0 -74 43 -117t105 -63.5t132 -25.5t123 -5q63 0 141 14.5t143.5 46t110.5 79.5t45 116v153h-497q-156 0 -251 -43t-95 -155zM540 1221l187 254h221 l-264 -254h-144z" />
<glyph unicode="&#xe2;" horiz-adv-x="1345" d="M61 334q0 98 44.5 161.5t115 99.5t161.5 49t183 13h514v52q0 80 -36.5 130t-95 78.5t-131.5 39t-142 10.5q-55 0 -117.5 -9.5t-119 -31t-102.5 -59.5t-71 -95l-158 39q29 86 90.5 143.5t140.5 92t166 49t169 14.5q100 0 204.5 -17.5t187.5 -61.5t136 -120.5t53 -193.5 v-717h-174v143q-86 -88 -204.5 -125.5t-239.5 -37.5q-92 0 -192.5 10t-185.5 46t-140.5 106.5t-55.5 191.5zM236 334q0 -74 43 -117t105 -63.5t132 -25.5t123 -5q63 0 141 14.5t143.5 46t110.5 79.5t45 116v153h-497q-156 0 -251 -43t-95 -155zM385 1200l186 254h201 l186 -254h-141l-145 158l-144 -158h-143z" />
<glyph unicode="&#xe3;" horiz-adv-x="1345" d="M61 334q0 98 44.5 161.5t115 99.5t161.5 49t183 13h514v52q0 80 -36.5 130t-95 78.5t-131.5 39t-142 10.5q-55 0 -117.5 -9.5t-119 -31t-102.5 -59.5t-71 -95l-158 39q29 86 90.5 143.5t140.5 92t166 49t169 14.5q100 0 204.5 -17.5t187.5 -61.5t136 -120.5t53 -193.5 v-717h-174v143q-86 -88 -204.5 -125.5t-239.5 -37.5q-92 0 -192.5 10t-185.5 46t-140.5 106.5t-55.5 191.5zM236 334q0 -74 43 -117t105 -63.5t132 -25.5t123 -5q63 0 141 14.5t143.5 46t110.5 79.5t45 116v153h-497q-156 0 -251 -43t-95 -155zM314 1221q2 98 59 155.5 t154 57.5q57 0 94 -20.5t65.5 -45.5t57 -45t67.5 -20q47 0 73 28.5t28 67.5h118q-2 -98 -61 -155.5t-156 -57.5q-57 0 -94 20.5t-65.5 45t-57 45t-67.5 20.5q-47 0 -73 -28.5t-28 -67.5h-114z" />
<glyph unicode="&#xe4;" horiz-adv-x="1345" d="M61 334q0 98 44.5 161.5t115 99.5t161.5 49t183 13h514v52q0 80 -36.5 130t-95 78.5t-131.5 39t-142 10.5q-55 0 -117.5 -9.5t-119 -31t-102.5 -59.5t-71 -95l-158 39q29 86 90.5 143.5t140.5 92t166 49t169 14.5q100 0 204.5 -17.5t187.5 -61.5t136 -120.5t53 -193.5 v-717h-174v143q-86 -88 -204.5 -125.5t-239.5 -37.5q-92 0 -192.5 10t-185.5 46t-140.5 106.5t-55.5 191.5zM236 334q0 -74 43 -117t105 -63.5t132 -25.5t123 -5q63 0 141 14.5t143.5 46t110.5 79.5t45 116v153h-497q-156 0 -251 -43t-95 -155zM334 1321q0 47 32.5 80 t80.5 33q47 0 79.5 -33t32.5 -80t-32.5 -80t-79.5 -33t-80 33t-33 80zM784 1321q0 47 33 80t80 33t80 -33t33 -80t-33 -80t-80 -33t-80 33t-33 80z" />
<glyph unicode="&#xe5;" horiz-adv-x="1345" d="M61 334q0 98 44.5 161.5t115 99.5t161.5 49t183 13h514v52q0 80 -36.5 130t-95 78.5t-131.5 39t-142 10.5q-55 0 -117.5 -9.5t-119 -31t-102.5 -59.5t-71 -95l-158 39q29 86 90.5 143.5t140.5 92t166 49t169 14.5q100 0 204.5 -17.5t187.5 -61.5t136 -120.5t53 -193.5 v-717h-174v143q-86 -88 -204.5 -125.5t-239.5 -37.5q-92 0 -192.5 10t-185.5 46t-140.5 106.5t-55.5 191.5zM236 334q0 -74 43 -117t105 -63.5t132 -25.5t123 -5q63 0 141 14.5t143.5 46t110.5 79.5t45 116v153h-497q-156 0 -251 -43t-95 -155zM432 1366q0 98 70.5 144 t170.5 46t170 -46t70 -144t-70.5 -142t-169.5 -44q-98 0 -169.5 44t-71.5 142zM548 1366q0 -47 33 -71.5t92 -24.5t91 24.5t32 71.5q0 98 -123 98q-125 0 -125 -98z" />
<glyph unicode="&#xe6;" horiz-adv-x="2500" d="M102 315q0 117 54.5 183.5t137.5 100.5t180 42t185 8h461v60q0 82 -39 133t-99 78.5t-132 37t-135 9.5q-57 0 -118.5 -8.5t-118 -31t-102.5 -60.5t-71 -95l-158 39q29 86 90.5 143.5t140.5 92t166 49t169 14.5q72 0 146.5 -9t144 -34t131 -65.5t104.5 -102.5 q102 119 236.5 165t287.5 46q123 0 237 -30.5t202 -94t141 -163t55 -234.5v-2l-2 -66h-1093q0 -96 40.5 -170t106.5 -125t151 -76.5t171 -25.5q72 0 140 8t129.5 32.5t113 68.5t86.5 114l149 -49q-47 -98 -111.5 -159.5t-143.5 -97.5t-171 -48t-192 -12q-166 0 -301.5 54 t-241.5 185q-98 -129 -237.5 -184t-297.5 -55q-59 0 -125.5 3t-133 13t-126 31.5t-105.5 58.5t-74 93.5t-28 135.5zM276 315q0 -72 41 -110.5t100.5 -57t125 -21.5t116.5 -3q57 0 136 11t152 41t123 79t50 125v141h-461q-53 0 -119.5 -4t-125 -23.5t-98.5 -61.5t-40 -116z M1309 649h907q-14 84 -57 144.5t-105.5 98.5t-138.5 56.5t-152 18.5q-78 0 -152.5 -18.5t-137 -56.5t-106.5 -98.5t-58 -144.5z" />
<glyph unicode="&#xe7;" horiz-adv-x="1368" d="M61 541q0 139 52.5 245.5t140.5 178t204.5 108.5t246.5 37q90 0 183 -16.5t176 -55.5t147.5 -104.5t97.5 -163.5l-158 -39q-20 68 -69.5 114t-112 72.5t-132 38t-132.5 11.5q-100 0 -186.5 -28t-149 -81t-98 -133t-35.5 -186q0 -109 36.5 -188t101 -129t151.5 -74.5 t188 -24.5q63 0 132.5 11t132 38t111 72t68.5 112l160 -39q-31 -94 -90.5 -157.5t-135 -102.5t-163.5 -56t-178 -19l-35 -78q41 0 78.5 -8.5t67.5 -25.5t48.5 -46t18.5 -68q0 -90 -75 -134t-179 -44q-96 0 -159.5 34t-88.5 99l121 37q16 -31 47 -47t80 -16q14 0 33.5 3 t37 11t28.5 21.5t11 35.5q0 45 -47 60.5t-102 15.5l-53 -2l75 152q-125 6 -233.5 42.5t-189 105.5t-127 171t-46.5 240z" />
<glyph unicode="&#xe8;" horiz-adv-x="1392" d="M61 541q0 139 51.5 245.5t138.5 178t202.5 108.5t246.5 37q125 0 239 -35t202 -104.5t140 -171t54 -236.5v-2v-72h-1093q6 -96 47 -164.5t105.5 -113.5t146.5 -66.5t168 -21.5q74 0 142.5 8t129.5 32.5t111.5 68.5t85.5 116l151 -51q-47 -98 -111.5 -159.5t-143.5 -97.5 t-171 -48t-194 -12q-133 0 -251 33.5t-206 102t-139.5 174t-51.5 251.5zM248 633h905q-14 84 -57 146.5t-104.5 104.5t-136.5 62.5t-155 20.5t-154.5 -20.5t-136 -62.5t-104.5 -104.5t-57 -146.5zM481 1475h221l186 -254h-143z" />
<glyph unicode="&#xe9;" horiz-adv-x="1392" d="M61 541q0 139 51.5 245.5t138.5 178t202.5 108.5t246.5 37q125 0 239 -35t202 -104.5t140 -171t54 -236.5v-2v-72h-1093q6 -96 47 -164.5t105.5 -113.5t146.5 -66.5t168 -21.5q74 0 142.5 8t129.5 32.5t111.5 68.5t85.5 116l151 -51q-47 -98 -111.5 -159.5t-143.5 -97.5 t-171 -48t-194 -12q-133 0 -251 33.5t-206 102t-139.5 174t-51.5 251.5zM248 633h905q-14 84 -57 146.5t-104.5 104.5t-136.5 62.5t-155 20.5t-154.5 -20.5t-136 -62.5t-104.5 -104.5t-57 -146.5zM628 1221l187 254h221l-264 -254h-144z" />
<glyph unicode="&#xea;" horiz-adv-x="1392" d="M61 541q0 139 51.5 245.5t138.5 178t202.5 108.5t246.5 37q125 0 239 -35t202 -104.5t140 -171t54 -236.5v-2v-72h-1093q6 -96 47 -164.5t105.5 -113.5t146.5 -66.5t168 -21.5q74 0 142.5 8t129.5 32.5t111.5 68.5t85.5 116l151 -51q-47 -98 -111.5 -159.5t-143.5 -97.5 t-171 -48t-194 -12q-133 0 -251 33.5t-206 102t-139.5 174t-51.5 251.5zM248 633h905q-14 84 -57 146.5t-104.5 104.5t-136.5 62.5t-155 20.5t-154.5 -20.5t-136 -62.5t-104.5 -104.5t-57 -146.5zM430 1200l186 254h201l186 -254h-141l-145 158l-144 -158h-143z" />
<glyph unicode="&#xeb;" horiz-adv-x="1392" d="M61 541q0 139 51.5 245.5t138.5 178t202.5 108.5t246.5 37q125 0 239 -35t202 -104.5t140 -171t54 -236.5v-2v-72h-1093q6 -96 47 -164.5t105.5 -113.5t146.5 -66.5t168 -21.5q74 0 142.5 8t129.5 32.5t111.5 68.5t85.5 116l151 -51q-47 -98 -111.5 -159.5t-143.5 -97.5 t-171 -48t-194 -12q-133 0 -251 33.5t-206 102t-139.5 174t-51.5 251.5zM248 633h905q-14 84 -57 146.5t-104.5 104.5t-136.5 62.5t-155 20.5t-154.5 -20.5t-136 -62.5t-104.5 -104.5t-57 -146.5zM358 1321q0 47 32.5 80t80.5 33q47 0 79.5 -33t32.5 -80t-32.5 -80 t-79.5 -33t-80 33t-33 80zM808 1321q0 47 33 80t80 33t80 -33t33 -80t-33 -80t-80 -33t-80 33t-33 80z" />
<glyph unicode="&#xec;" horiz-adv-x="532" d="M14 1475h221l186 -254h-143zM180 0v1090h174v-1090h-174z" />
<glyph unicode="&#xed;" horiz-adv-x="532" d="M157 1221l187 254h221l-264 -254h-144zM180 0v1090h174v-1090h-174z" />
<glyph unicode="&#xee;" horiz-adv-x="532" d="M-18 1200l186 254h201l186 -254h-141l-145 158l-144 -158h-143zM180 0v1090h174v-1090h-174z" />
<glyph unicode="&#xef;" horiz-adv-x="532" d="M-41 1321q0 47 33 80t80 33t79.5 -33t32.5 -80t-32.5 -80t-79.5 -33t-80 33t-33 80zM180 0v1090h174v-1090h-174zM348 1321q0 47 33 80t80 33t79.5 -33t32.5 -80t-32.5 -80t-79.5 -33t-80 33t-33 80z" />
<glyph unicode="&#xf0;" horiz-adv-x="1695" d="M104 446q0 133 63.5 222.5t164 143.5t221.5 77.5t238 23.5q80 0 169 -10t175 -35.5t160.5 -67.5t127.5 -106q0 315 -161 469l-205 -145l-72 108l162 115q-72 35 -158 52.5t-190 17.5q-63 0 -132 -6.5t-135 -26.5l-51 137q78 23 160 31t160 8q289 0 479 -117l209 150 l72 -109l-172 -123q98 -94 151 -231t53 -319q0 -188 -52 -325.5t-151.5 -227t-242.5 -131t-326 -41.5q-117 0 -243.5 19t-231 71.5t-173.5 142.5t-69 233zM283 446q0 -98 54 -161.5t136 -99t176 -49t172 -13.5q76 0 173.5 16.5t182.5 56.5t143 105.5t58 163.5 q0 100 -61.5 160.5t-149.5 94.5t-187 45t-173 11q-104 0 -198.5 -15.5t-167 -54t-115.5 -102t-43 -158.5z" />
<glyph unicode="&#xf1;" d="M123 0v1090h174v-185q86 109 205 157t254 48q115 0 212 -26.5t167.5 -83t109.5 -143.5t39 -206v-651h-174v651q0 158 -99.5 237t-265.5 79q-78 0 -157.5 -22.5t-144 -68t-105.5 -112t-41 -154.5v-610h-174zM355 1221q2 98 59 155.5t154 57.5q57 0 94 -20.5t65.5 -45.5 t57 -45t67.5 -20q47 0 73 28.5t28 67.5h118q-2 -98 -61 -155.5t-156 -57.5q-57 0 -94 20.5t-65.5 45t-57 45t-67.5 20.5q-47 0 -73 -28.5t-28 -67.5h-114z" />
<glyph unicode="&#xf2;" horiz-adv-x="1388" d="M53 541q0 145 51.5 252.5t138.5 178t203.5 104.5t250.5 34q131 0 248.5 -34t204.5 -104.5t138.5 -178t51.5 -252.5q0 -147 -50.5 -253t-137.5 -174.5t-204.5 -101t-250.5 -32.5t-251 32.5t-205 101t-137.5 174t-50.5 253.5zM228 539q0 -106 35.5 -185.5t98 -130.5 t148.5 -75.5t187 -24.5q100 0 185 24.5t148.5 75.5t99.5 130.5t36 185.5q0 109 -35 188.5t-97.5 132.5t-148.5 80t-188 27t-188.5 -27t-149 -80t-97 -133t-34.5 -188zM490 1475h221l186 -254h-143z" />
<glyph unicode="&#xf3;" horiz-adv-x="1388" d="M53 541q0 145 51.5 252.5t138.5 178t203.5 104.5t250.5 34q131 0 248.5 -34t204.5 -104.5t138.5 -178t51.5 -252.5q0 -147 -50.5 -253t-137.5 -174.5t-204.5 -101t-250.5 -32.5t-251 32.5t-205 101t-137.5 174t-50.5 253.5zM228 539q0 -106 35.5 -185.5t98 -130.5 t148.5 -75.5t187 -24.5q100 0 185 24.5t148.5 75.5t99.5 130.5t36 185.5q0 109 -35 188.5t-97.5 132.5t-148.5 80t-188 27t-188.5 -27t-149 -80t-97 -133t-34.5 -188zM610 1219l187 254h221l-264 -254h-144z" />
<glyph unicode="&#xf4;" horiz-adv-x="1388" d="M53 541q0 145 51.5 252.5t138.5 178t203.5 104.5t250.5 34q131 0 248.5 -34t204.5 -104.5t138.5 -178t51.5 -252.5q0 -147 -50.5 -253t-137.5 -174.5t-204.5 -101t-250.5 -32.5t-251 32.5t-205 101t-137.5 174t-50.5 253.5zM228 539q0 -106 35.5 -185.5t98 -130.5 t148.5 -75.5t187 -24.5q100 0 185 24.5t148.5 75.5t99.5 130.5t36 185.5q0 109 -35 188.5t-97.5 132.5t-148.5 80t-188 27t-188.5 -27t-149 -80t-97 -133t-34.5 -188zM408 1200l186 254h201l186 -254h-141l-145 158l-144 -158h-143z" />
<glyph unicode="&#xf5;" horiz-adv-x="1388" d="M53 541q0 145 51.5 252.5t138.5 178t203.5 104.5t250.5 34q131 0 248.5 -34t204.5 -104.5t138.5 -178t51.5 -252.5q0 -147 -50.5 -253t-137.5 -174.5t-204.5 -101t-250.5 -32.5t-251 32.5t-205 101t-137.5 174t-50.5 253.5zM228 539q0 -106 35.5 -185.5t98 -130.5 t148.5 -75.5t187 -24.5q100 0 185 24.5t148.5 75.5t99.5 130.5t36 185.5q0 109 -35 188.5t-97.5 132.5t-148.5 80t-188 27t-188.5 -27t-149 -80t-97 -133t-34.5 -188zM336 1221q2 98 59 155.5t154 57.5q57 0 94 -20.5t65.5 -45.5t57 -45t67.5 -20q47 0 73 28.5t28 67.5h118 q-2 -98 -61 -155.5t-156 -57.5q-57 0 -94 20.5t-65.5 45t-57 45t-67.5 20.5q-47 0 -73 -28.5t-28 -67.5h-114z" />
<glyph unicode="&#xf6;" horiz-adv-x="1388" d="M53 541q0 145 51.5 252.5t138.5 178t203.5 104.5t250.5 34q131 0 248.5 -34t204.5 -104.5t138.5 -178t51.5 -252.5q0 -147 -50.5 -253t-137.5 -174.5t-204.5 -101t-250.5 -32.5t-251 32.5t-205 101t-137.5 174t-50.5 253.5zM228 539q0 -106 35.5 -185.5t98 -130.5 t148.5 -75.5t187 -24.5q100 0 185 24.5t148.5 75.5t99.5 130.5t36 185.5q0 109 -35 188.5t-97.5 132.5t-148.5 80t-188 27t-188.5 -27t-149 -80t-97 -133t-34.5 -188zM356 1321q0 47 32.5 80t80.5 33q47 0 79.5 -33t32.5 -80t-32.5 -80t-79.5 -33t-80 33t-33 80zM806 1321 q0 47 33 80t80 33t80 -33t33 -80t-33 -80t-80 -33t-80 33t-33 80z" />
<glyph unicode="&#xf7;" horiz-adv-x="1187" d="M123 489h942v144h-942v-144zM473 225q0 -51 36 -87t87 -36t87 36t36 87t-36 87t-87 36t-87 -36t-36 -87zM473 897q0 51 36 87t87 36t87 -36t36 -87t-36 -87t-87 -36t-87 36t-36 87z" />
<glyph unicode="&#xf8;" horiz-adv-x="1388" d="M51 541q0 145 51.5 252.5t138.5 178t203.5 104.5t249.5 34q213 0 373 -86l63 66h189l-141 -144q76 -70 117.5 -170t41.5 -235q0 -147 -50 -253t-137 -174.5t-205 -101t-251 -32.5q-111 0 -209 21.5t-178 66.5l-65 -68h-181l142 145q-72 70 -112 166.5t-40 229.5zM225 539 q0 -88 24.5 -157t69.5 -120l637 649q-111 55 -262 56q-102 0 -188 -27t-148.5 -80t-97.5 -133t-35 -188zM422 182q57 -31 125.5 -45t146.5 -14q100 0 185.5 24.5t149 75.5t99 130.5t35.5 185.5q0 94 -26.5 165.5t-73.5 124.5z" />
<glyph unicode="&#xf9;" d="M102 438v652h174v-652q0 -158 99.5 -236.5t265.5 -78.5q78 0 158 22.5t144.5 67.5t105.5 111.5t41 154.5v611h174v-1090h-174v184q-86 -109 -205 -156.5t-254 -47.5q-115 0 -212 26.5t-168 82.5t-110 142t-39 207zM457 1475h221l186 -254h-143z" />
<glyph unicode="&#xfa;" d="M102 438v652h174v-652q0 -158 99.5 -236.5t265.5 -78.5q78 0 158 22.5t144.5 67.5t105.5 111.5t41 154.5v611h174v-1090h-174v184q-86 -109 -205 -156.5t-254 -47.5q-115 0 -212 26.5t-168 82.5t-110 142t-39 207zM542 1221l187 254h221l-264 -254h-144z" />
<glyph unicode="&#xfb;" d="M102 438v652h174v-652q0 -158 99.5 -236.5t265.5 -78.5q78 0 158 22.5t144.5 67.5t105.5 111.5t41 154.5v611h174v-1090h-174v184q-86 -109 -205 -156.5t-254 -47.5q-115 0 -212 26.5t-168 82.5t-110 142t-39 207zM406 1200l186 254h201l186 -254h-141l-145 158 l-144 -158h-143z" />
<glyph unicode="&#xfc;" d="M102 438v652h174v-652q0 -158 99.5 -236.5t265.5 -78.5q78 0 158 22.5t144.5 67.5t105.5 111.5t41 154.5v611h174v-1090h-174v184q-86 -109 -205 -156.5t-254 -47.5q-115 0 -212 26.5t-168 82.5t-110 142t-39 207zM354 1321q0 47 32.5 80t80.5 33q47 0 79.5 -33t32.5 -80 t-32.5 -80t-79.5 -33t-80 33t-33 80zM804 1321q0 47 33 80t80 33t80 -33t33 -80t-33 -80t-80 -33t-80 33t-33 80z" />
<glyph unicode="&#xfd;" horiz-adv-x="1398" d="M41 1090h201l463 -912l452 912h201l-561 -1090q-39 -76 -77 -141.5t-87 -112.5t-114.5 -74.5t-162.5 -27.5q-55 0 -116.5 14t-112.5 39l33 143q41 -25 95 -39t101 -14q49 0 89 17.5t71 46t54.5 65.5t43.5 78zM618 1221l187 254h221l-264 -254h-144z" />
<glyph unicode="&#xfe;" horiz-adv-x="1460" d="M123 -406v1840h174v-498q90 90 213 132t246 42q135 0 252.5 -34t203.5 -102.5t136.5 -175t50.5 -251.5q0 -139 -50.5 -245.5t-136.5 -178.5t-201.5 -107.5t-246.5 -35.5q-125 0 -250 33.5t-217 125.5v-545h-174zM297 406q0 -76 51 -129.5t124 -87t153 -50t139 -16.5 q100 0 184 27.5t145.5 81t96.5 133.5t35 184q0 106 -36 185t-99.5 130t-149.5 77t-184 26q-57 0 -136 -15.5t-151 -49.5t-122 -87t-50 -127v-282z" />
<glyph unicode="&#xff;" horiz-adv-x="1398" d="M41 1090h201l463 -912l452 912h201l-561 -1090q-39 -76 -77 -141.5t-87 -112.5t-114.5 -74.5t-162.5 -27.5q-55 0 -116.5 14t-112.5 39l33 143q41 -25 95 -39t101 -14q49 0 89 17.5t71 46t54.5 65.5t43.5 78zM361 1321q0 47 32.5 80t80.5 33q47 0 79.5 -33t32.5 -80 t-32.5 -80t-79.5 -33t-80 33t-33 80zM811 1321q0 47 33 80t80 33t80 -33t33 -80t-33 -80t-80 -33t-80 33t-33 80z" />
<glyph unicode="&#x152;" horiz-adv-x="2955" d="M102 719q0 186 62.5 324.5t172 229.5t259 136t326.5 45q88 0 175 -12t168 -40t152.5 -76t130.5 -118v226h1293v-144h-1119v-479h990v-143h-990v-525h1131v-143h-1305v227q-127 -143 -283.5 -195t-342.5 -52q-182 0 -333 43t-259.5 133t-168 229t-59.5 334zM276 719 q0 -154 46.5 -266.5t130.5 -186t202.5 -108.5t266.5 -35q147 0 266 35t204 108.5t131 186t46 266.5q0 156 -46 267.5t-130 184t-204 106.5t-267 34t-266 -34t-204 -106.5t-130.5 -184.5t-45.5 -267z" />
<glyph unicode="&#x153;" horiz-adv-x="2590" d="M102 541q0 145 51.5 252.5t138.5 178t203.5 104.5t249.5 34q180 0 328 -63.5t232 -192.5q86 127 230 191.5t318 64.5q125 0 240 -35t203 -104.5t140 -171t52 -236.5v-2v-72h-1093q6 -96 47 -164.5t105.5 -113.5t146.5 -66.5t168 -21.5q74 0 142.5 8t129.5 32.5 t111.5 68.5t85.5 116l151 -51q-47 -98 -111.5 -159.5t-143.5 -97.5t-171 -48t-194 -12q-180 0 -326.5 59t-232.5 184q-84 -127 -230.5 -185t-327.5 -58q-133 0 -250.5 32.5t-204.5 101t-137.5 174t-50.5 253.5zM276 539q0 -106 36 -185.5t98.5 -130.5t148.5 -75.5t186 -24.5 t185.5 24.5t149 75.5t99 130.5t35.5 185.5q0 109 -34.5 188.5t-97 132.5t-148.5 80t-189 27q-102 0 -188 -27t-148.5 -80t-97.5 -133t-35 -188zM1401 633h905q-14 84 -57 146.5t-104.5 104.5t-136.5 62.5t-155 20.5t-154.5 -20.5t-136 -62.5t-104.5 -104.5t-57 -146.5z" />
<glyph unicode="&#x178;" horiz-adv-x="1619" d="M40 1434h207l566 -736l559 736h207l-678 -875v-559h-181v559zM471 1665q0 47 32.5 80t80.5 33q47 0 79.5 -33t32.5 -80t-32.5 -80t-79.5 -33t-80 33t-33 80zM921 1665q0 47 33 80t80 33t80 -33t33 -80t-33 -80t-80 -33t-80 33t-33 80z" />
<glyph unicode="&#x2c6;" horiz-adv-x="901" d="M164 1200l186 254h201l186 -254h-141l-145 158l-144 -158h-143z" />
<glyph unicode="&#x2dc;" horiz-adv-x="1007" d="M156 1221q2 98 59 155.5t154 57.5q57 0 94 -20.5t65.5 -45.5t57 -45t67.5 -20q47 0 73 28.5t28 67.5h118q-2 -98 -61 -155.5t-156 -57.5q-57 0 -94 20.5t-65.5 45t-57 45t-67.5 20.5q-47 0 -73 -28.5t-28 -67.5h-114z" />
<glyph unicode="&#x2000;" horiz-adv-x="909" />
<glyph unicode="&#x2001;" horiz-adv-x="1819" />
<glyph unicode="&#x2002;" horiz-adv-x="909" />
<glyph unicode="&#x2003;" horiz-adv-x="1819" />
<glyph unicode="&#x2004;" horiz-adv-x="606" />
<glyph unicode="&#x2005;" horiz-adv-x="454" />
<glyph unicode="&#x2006;" horiz-adv-x="303" />
<glyph unicode="&#x2007;" horiz-adv-x="303" />
<glyph unicode="&#x2008;" horiz-adv-x="227" />
<glyph unicode="&#x2009;" horiz-adv-x="363" />
<glyph unicode="&#x200a;" horiz-adv-x="101" />
<glyph unicode="&#x2010;" horiz-adv-x="1126" d="M143 489v144h840v-144h-840z" />
<glyph unicode="&#x2011;" horiz-adv-x="1126" d="M143 489v144h840v-144h-840z" />
<glyph unicode="&#x2012;" horiz-adv-x="1126" d="M143 489v144h840v-144h-840z" />
<glyph unicode="&#x2013;" horiz-adv-x="1392" d="M143 489v144h1106v-144h-1106z" />
<glyph unicode="&#x2014;" horiz-adv-x="1761" d="M143 489v144h1475v-144h-1475z" />
<glyph unicode="&#x2018;" horiz-adv-x="505" d="M123 1157q0 111 46 185.5t146 132.5l47 -58q-41 -27 -69.5 -61.5t-32.5 -85.5q51 -4 87 -37t36 -86t-39 -88t-90 -35q-53 0 -92 34t-39 99z" />
<glyph unicode="&#x2019;" horiz-adv-x="505" d="M123 1331q0 53 39 88t90 35q53 0 92 -33.5t39 -99.5q0 -111 -46 -185.5t-147 -131.5l-47 57q41 27 70 61.5t33 85.5q-51 4 -87 37t-36 86z" />
<glyph unicode="&#x201a;" horiz-adv-x="464" d="M102 102q0 53 39 88t90 35q53 0 92 -33.5t39 -99.5q0 -111 -46 -185.5t-146 -131.5l-47 57q41 27 69.5 61.5t32.5 86.5q-51 4 -87 36.5t-36 85.5z" />
<glyph unicode="&#x201c;" horiz-adv-x="806" d="M102 1157q0 111 46.5 185.5t146.5 132.5l47 -58q-41 -27 -69.5 -61.5t-32.5 -85.5q51 -4 86.5 -37t35.5 -86t-38.5 -88t-90.5 -35q-53 0 -92 34t-39 99zM444 1157q0 111 46.5 185.5t146.5 132.5l47 -58q-41 -27 -69.5 -61.5t-32.5 -85.5q51 -4 87 -37t36 -86t-39 -88 t-91 -35q-53 0 -92 34t-39 99z" />
<glyph unicode="&#x201d;" horiz-adv-x="806" d="M102 1331q0 53 39 88t90 35q53 0 92 -34t39 -99q0 -111 -46 -185.5t-146 -131.5l-47 57q41 27 69.5 61.5t32.5 85.5q-51 4 -87 37t-36 86zM444 1331q0 53 39 88t90 35q53 0 92.5 -34t39.5 -99q0 -111 -46.5 -185.5t-146.5 -131.5l-47 57q41 27 69.5 61.5t32.5 85.5 q-51 4 -87 37t-36 86z" />
<glyph unicode="&#x201e;" horiz-adv-x="813" d="M102 102q0 53 39 88t90 35q53 0 92 -33.5t39 -99.5q0 -111 -46 -185.5t-146 -131.5l-47 57q41 27 69.5 61.5t32.5 86.5q-51 4 -87 36.5t-36 85.5zM451 102q0 53 38.5 88t90.5 35q53 0 92 -33.5t39 -99.5q0 -111 -46.5 -185.5t-146.5 -131.5l-47 57q41 27 69.5 61.5 t32.5 86.5q-51 4 -86.5 36.5t-35.5 85.5z" />
<glyph unicode="&#x2022;" horiz-adv-x="882" d="M164 557q0 57 21.5 107.5t59.5 88.5t89 59.5t108 21.5t107.5 -21.5t88.5 -59.5t59.5 -88.5t21.5 -107.5t-21.5 -108.5t-59.5 -89t-88 -59t-108 -21.5q-57 0 -108 21.5t-89 59t-59.5 89t-21.5 108.5z" />
<glyph unicode="&#x2026;" horiz-adv-x="1351" d="M123 102q0 51 36 87t87 36t87 -36t36 -87t-36 -86.5t-87 -35.5t-87 35.5t-36 86.5zM553 102q0 51 36 87t87 36t87 -36t36 -87t-36 -86.5t-87 -35.5t-87 35.5t-36 86.5zM983 102q0 51 36 87t87 36t87 -36t36 -87t-36 -86.5t-87 -35.5t-87 35.5t-36 86.5z" />
<glyph unicode="&#x202f;" horiz-adv-x="363" />
<glyph unicode="&#x2039;" horiz-adv-x="929" d="M143 449v190l643 453v-179l-526 -368l526 -369v-178z" />
<glyph unicode="&#x203a;" horiz-adv-x="929" d="M143 -2v178l527 369l-527 368v179l643 -453v-190z" />
<glyph unicode="&#x205f;" horiz-adv-x="454" />
<glyph unicode="&#x20ac;" horiz-adv-x="1927" d="M102 494v143h179q-2 20 -2 39.5v42.5v42t2 40h-179v143h201q33 133 103.5 229.5t174 159t234.5 92t283 29.5q106 0 216.5 -18.5t206 -63.5t168 -120.5t107.5 -192.5l-170 -39q-23 84 -79 140.5t-131 90t-157.5 47t-158.5 13.5q-231 0 -394 -88t-223 -279h840l-41 -143 h-825q-2 -20 -3 -40t-1 -42q0 -23 1 -42.5t3 -39.5h776l-43 -143h-705q61 -188 225 -279.5t390 -91.5q68 0 148.5 10t155.5 37t135 73t89 119l176 -28q-37 -109 -114.5 -177.5t-176 -107.5t-207 -54t-208.5 -15q-152 0 -283 29.5t-234.5 93t-174 160.5t-103.5 231h-201z" />
<glyph unicode="&#x2122;" horiz-adv-x="1499" d="M82 1362v72h569v-72h-243v-465h-82v465h-244zM723 897v537h113l202 -430l205 430h113v-537h-84v418q-47 -104 -97.5 -209t-101.5 -209h-69q-49 104 -99.5 208.5t-97.5 209.5v-418h-84z" />
<glyph unicode="&#x25fc;" horiz-adv-x="1085" d="M0 0v1085h1085v-1085h-1085z" />
</font>
</defs>
</svg>
